<svg version="1.1" xmlns="http://www.w3.org/2000/svg" viewBox="0 0 914.437442399111 667.4564908244201" width="1828.874884798222" height="1334.9129816488403" filter="invert(93%) hue-rotate(180deg)">
  <!-- svg-source:excalidraw -->
  
  <defs>
    <style class="style-fonts">
      @font-face {
        font-family: "Virgil";
        src: url("https://excalidraw.com/Virgil.woff2");
      }
      @font-face {
        font-family: "Cascadia";
        src: url("https://excalidraw.com/Cascadia.woff2");
      }
      @font-face {
        font-family: "Assistant";
        src: url("https://excalidraw.com/Assistant-Regular.woff2");
      }
    </style>
    
  </defs>
  <rect x="0" y="0" width="914.437442399111" height="667.4564908244201" fill="#ffffff"></rect><g stroke-linecap="round" transform="translate(736.5327322380961 229.60523406341596) rotate(0 83.5 77.34240919102336)"><path d="M0 0 C0 0, 0 0, 0 0 M0 0 C0 0, 0 0, 0 0 M-0.26 6.4 C1.05 4.25, 3.01 2.43, 4.99 0.36 M-0.26 6.4 C1.59 4.47, 3.2 2.06, 4.99 0.36 M0.13 12.04 C4.21 9.79, 4.9 6.43, 10.63 -0.03 M0.13 12.04 C2.97 8.11, 7.25 3.24, 10.63 -0.03 M-0.13 18.44 C4.38 12.67, 6.09 8.91, 15.62 0.33 M-0.13 18.44 C5.91 12.33, 11.02 4.54, 15.62 0.33 M0.27 24.08 C7.03 14.48, 12.07 9.12, 21.26 -0.07 M0.27 24.08 C7.81 15.57, 16.26 5.17, 21.26 -0.07 M0 30.48 C4.61 23.75, 10.7 17.75, 26.25 0.29 M0 30.48 C9.96 18.08, 20.82 6.12, 26.25 0.29 M-0.26 36.88 C9.37 25.61, 15.35 19.77, 31.89 -0.1 M-0.26 36.88 C9.37 27.47, 17.95 15.84, 31.89 -0.1 M0.14 42.52 C14.92 25.14, 27.69 11.11, 36.88 0.26 M0.14 42.52 C11.67 30.3, 21.42 16.06, 36.88 0.26 M-0.12 48.92 C15.38 32.57, 27.24 17.95, 42.52 -0.14 M-0.12 48.92 C11.75 36.78, 22.57 23.07, 42.52 -0.14 M0.27 54.56 C17.35 33.47, 36.75 13.4, 47.51 0.22 M0.27 54.56 C15.9 36.88, 30.03 18.87, 47.51 0.22 M0.01 60.96 C11.81 46.22, 22.18 33.24, 53.15 -0.17 M0.01 60.96 C12.25 46.06, 27.01 30.02, 53.15 -0.17 M-0.25 67.36 C15.31 50.74, 28.83 36.44, 58.14 0.19 M-0.25 67.36 C11.65 53.09, 25.1 37.74, 58.14 0.19 M0.14 73 C22.66 46.64, 47.26 19.29, 63.78 -0.21 M0.14 73 C16.52 54.54, 33.14 35.47, 63.78 -0.21 M-0.12 79.4 C22.64 53.65, 45.62 25.64, 68.77 0.15 M-0.12 79.4 C15.66 62.36, 30.48 43.05, 68.77 0.15 M0.28 85.04 C14.02 66.77, 31.04 47.87, 74.41 -0.24 M0.28 85.04 C21.71 59.68, 44.28 34.04, 74.41 -0.24 M0.01 91.44 C26.62 60.36, 55.3 29.49, 79.4 0.12 M0.01 91.44 C26.41 59.82, 54.05 27.69, 79.4 0.12 M-0.25 97.84 C18.18 74.88, 38.58 50, 85.04 -0.28 M-0.25 97.84 C31.12 61.35, 60.86 26.54, 85.04 -0.28 M0.15 103.48 C33.77 61.29, 72.17 21.39, 90.03 0.08 M0.15 103.48 C27.23 74.01, 53.09 43.73, 90.03 0.08 M-0.11 109.88 C27.47 76.15, 54.08 44.78, 95.67 -0.31 M-0.11 109.88 C23.75 85.74, 45.39 60.59, 95.67 -0.31 M0.28 115.52 C24.39 87.74, 51.41 57.54, 100.66 0.05 M0.28 115.52 C29.99 79.5, 61.4 46.64, 100.66 0.05 M0.02 121.92 C26.06 90.03, 53.4 61.89, 106.3 -0.34 M0.02 121.92 C22.87 95.66, 45.45 70.48, 106.3 -0.34 M-0.24 128.32 C39.1 80.8, 76.97 37.4, 111.29 0.02 M-0.24 128.32 C33.75 85.59, 70.42 45.92, 111.29 0.02 M0.15 133.96 C39.93 87.7, 83.18 40.5, 116.27 0.38 M0.15 133.96 C28.87 101.12, 58.01 70.18, 116.27 0.38 M-0.11 140.36 C42.39 88.4, 86.91 40.87, 121.92 -0.02 M-0.11 140.36 C31.59 103.59, 62.5 67.16, 121.92 -0.02 M0.29 146 C35.25 105.94, 72.05 64.31, 126.91 0.34 M0.29 146 C47.87 91.56, 94.55 36.25, 126.91 0.34 M0.02 152.4 C28.65 118.45, 55.9 88.99, 132.55 -0.05 M0.02 152.4 C39.85 106.93, 79.75 60.68, 132.55 -0.05 M3.04 155.02 C40.8 111, 77.75 70.64, 137.54 0.31 M3.04 155.02 C45.13 107.46, 84.89 60.8, 137.54 0.31 M8.03 155.38 C44.49 114.25, 77.28 73.05, 143.18 -0.09 M8.03 155.38 C62.09 94.85, 116.73 33.3, 143.18 -0.09 M13.67 154.99 C45.61 119.61, 81.19 83.07, 148.17 0.27 M13.67 154.99 C43.22 121.71, 71.7 88.79, 148.17 0.27 M18.66 155.35 C67.93 97.8, 119.21 37.94, 153.81 -0.12 M18.66 155.35 C70.07 97.5, 120.61 39.5, 153.81 -0.12 M24.3 154.95 C52.18 122.82, 78.65 90.73, 158.8 0.24 M24.3 154.95 C70.28 99.27, 117.6 45.66, 158.8 0.24 M29.29 155.31 C58.28 125.11, 88.62 92.04, 164.44 -0.16 M29.29 155.31 C62.07 118.74, 93 81.28, 164.44 -0.16 M34.93 154.92 C68.95 112.49, 106.09 70.6, 167.46 2.47 M34.93 154.92 C68.76 116.69, 100.91 77.54, 167.46 2.47 M39.92 155.28 C77.89 106.78, 119.04 60.53, 167.85 8.11 M39.92 155.28 C74.98 115.15, 107.85 76.23, 167.85 8.11 M45.56 154.88 C83.09 113.22, 119.19 71.69, 167.59 14.51 M45.56 154.88 C82.8 112.79, 119.04 69.65, 167.59 14.51 M50.55 155.24 C81.53 122.11, 109.99 86.15, 167.98 20.15 M50.55 155.24 C85.8 115.49, 122.22 74.54, 167.98 20.15 M56.19 154.85 C94.73 105.73, 135.33 59.11, 167.72 26.55 M56.19 154.85 C99.99 104.95, 142.47 55.1, 167.72 26.55 M61.18 155.21 C93.1 120.1, 122.91 83.72, 167.46 32.95 M61.18 155.21 C89.04 122.97, 117.49 89.42, 167.46 32.95 M66.82 154.81 C99.14 116.37, 133.31 78.54, 167.86 38.59 M66.82 154.81 C91.97 126.48, 117.97 96.13, 167.86 38.59 M71.81 155.17 C98.31 120.56, 128.3 90.87, 167.6 44.99 M71.81 155.17 C97.44 126.2, 122.7 95.33, 167.6 44.99 M77.45 154.78 C105.25 127.24, 127.64 96.87, 167.99 50.63 M77.45 154.78 C108.02 120.51, 136.84 88.58, 167.99 50.63 M82.44 155.14 C98.99 133.92, 119.75 114.85, 167.73 57.03 M82.44 155.14 C104.63 129.41, 127.81 104.58, 167.73 57.03 M88.08 154.75 C113.02 128.74, 136.54 101.86, 167.47 63.43 M88.08 154.75 C108.42 131.39, 129.81 107.19, 167.47 63.43 M93.07 155.11 C110.2 136.68, 125.77 116.69, 167.86 69.07 M93.07 155.11 C122.79 120.93, 153.28 87.46, 167.86 69.07 M98.71 154.71 C115.87 135.24, 132.74 114.01, 167.6 75.47 M98.71 154.71 C119.72 132.33, 138.27 109.62, 167.6 75.47 M103.7 155.07 C130.41 127.11, 154 97.55, 167.99 81.11 M103.7 155.07 C121.74 133.39, 140.9 110.91, 167.99 81.11 M109.34 154.68 C122.13 140.97, 137.21 122.48, 167.73 87.51 M109.34 154.68 C133.19 128.01, 154.75 103.38, 167.73 87.51 M114.33 155.04 C136.47 130.4, 154.89 108.69, 167.47 93.91 M114.33 155.04 C130.23 134.73, 148.39 115.5, 167.47 93.91 M119.32 155.4 C134.24 138.44, 150.54 121.12, 167.87 99.55 M119.32 155.4 C135 136.88, 150.68 119.77, 167.87 99.55 M124.96 155 C142.95 135.99, 158.02 118.82, 167.6 105.95 M124.96 155 C141.18 137.74, 156.56 119.51, 167.6 105.95 M129.95 155.36 C137.09 146.25, 146.76 138.21, 168 111.59 M129.95 155.36 C139.16 144.12, 147.03 135.24, 168 111.59 M135.59 154.97 C146.64 141.23, 157.72 128.16, 167.74 117.99 M135.59 154.97 C143.18 145.36, 151.82 134.81, 167.74 117.99 M140.58 155.33 C150.14 144.26, 161.44 134.58, 167.48 124.38 M140.58 155.33 C145.51 147.67, 151.8 141.02, 167.48 124.38 M146.22 154.93 C155.87 146.59, 160.48 138.86, 167.87 130.03 M146.22 154.93 C152.55 147.74, 159.11 139.07, 167.87 130.03 M151.21 155.29 C155.28 148.32, 158.9 146.59, 167.61 136.43 M151.21 155.29 C157.31 147.07, 164.79 140, 167.61 136.43 M156.85 154.9 C161.36 151.47, 163.12 148.97, 168 142.07 M156.85 154.9 C159.15 153.03, 162.26 149.61, 168 142.07 M161.84 155.26 C163.84 154.26, 165.25 151.49, 167.74 148.47 M161.84 155.26 C164.51 152.66, 166.48 149.78, 167.74 148.47" stroke="#e64980" stroke-width="0.5" fill="none"></path><path d="M0 0 C52.43 0.21, 103.9 1.4, 167 0 M0 0 C58.05 -1.09, 116.13 0, 167 0 M167 0 C165.75 30.61, 166.39 64.88, 167 154.68 M167 0 C168.5 55.34, 168.41 108.24, 167 154.68 M167 154.68 C106.41 154.45, 43.43 153.66, 0 154.68 M167 154.68 C115.92 153.62, 64.69 152.57, 0 154.68 M0 154.68 C1.52 109.96, -1.32 64.25, 0 0 M0 154.68 C-0.59 122.53, -0.35 90.51, 0 0" stroke="#000000" stroke-width="1" fill="none"></path></g><g transform="translate(741.5327322380961 274.9476432544393) rotate(0 78.5 32)"><text x="78.5" y="22.50517737665126" font-family="Virgil, Segoe UI Emoji" font-size="25.38722626563834px" fill="#000000" text-anchor="middle" style="white-space: pre;" direction="ltr" dominant-baseline="alphabetic">SQL</text><text x="78.5" y="54.50517737665126" font-family="Virgil, Segoe UI Emoji" font-size="25.38722626563834px" fill="#000000" text-anchor="middle" style="white-space: pre;" direction="ltr" dominant-baseline="alphabetic">DB</text></g><g stroke-linecap="round" transform="translate(738.4212882065221 217.78355419132572) rotate(0 82.79939342167336 11.149128681596764)"><path d="M69.83 0.36 C81.66 -0.24, 97.33 -0.2, 109.37 0.28 C121.41 0.77, 133.23 1.94, 142.07 3.28 C150.91 4.63, 158.65 6.56, 162.41 8.37 C166.17 10.18, 167.31 12.37, 164.62 14.15 C161.92 15.92, 154.37 17.97, 146.22 19.03 C138.06 20.09, 127.37 20.12, 115.67 20.5 C103.98 20.88, 88.84 21.28, 76.02 21.29 C63.2 21.3, 49.7 21.47, 38.73 20.57 C27.75 19.68, 16.76 17.31, 10.19 15.93 C3.61 14.54, -0.44 13.99, -0.73 12.26 C-1.03 10.53, 2.86 7.33, 8.41 5.53 C13.96 3.74, 21.13 2.55, 32.57 1.5 C44 0.46, 68.41 -0.52, 77 -0.72 C85.59 -0.93, 84 0.08, 84.12 0.27 M70.93 0.23 C82.54 -0.56, 97.19 -1.34, 109.42 -0.54 C121.64 0.25, 135.16 3.61, 144.27 4.98 C153.38 6.36, 160.98 6.05, 164.07 7.71 C167.17 9.36, 165.94 13.15, 162.82 14.91 C159.71 16.67, 153.77 17.35, 145.37 18.26 C136.97 19.18, 124.47 19.95, 112.42 20.42 C100.36 20.88, 85.61 21.23, 73.03 21.06 C60.44 20.88, 47.28 19.89, 36.9 19.35 C26.52 18.8, 17.01 18.94, 10.75 17.78 C4.48 16.62, -0.3 14.46, -0.69 12.38 C-1.09 10.29, 2.39 7.21, 8.38 5.27 C14.37 3.32, 24.88 1.65, 35.25 0.72 C45.62 -0.21, 64.37 -0.45, 70.6 -0.32 C76.83 -0.19, 72.54 1.29, 72.63 1.5" stroke="none" stroke-width="0" fill="#e64980"></path><path d="M60.35 0.77 C71.66 0, 87.2 -0.65, 99.64 -0.26 C112.08 0.14, 125.21 1.9, 134.99 3.16 C144.77 4.42, 153.19 5.98, 158.32 7.31 C163.44 8.64, 166.9 9.62, 165.76 11.15 C164.63 12.69, 158.53 14.82, 151.51 16.52 C144.48 18.22, 134.55 20.46, 123.6 21.36 C112.66 22.27, 98.48 21.84, 85.83 21.97 C73.19 22.1, 59.19 22.93, 47.74 22.14 C36.29 21.35, 24.83 18.75, 17.14 17.24 C9.46 15.74, 3.9 14.67, 1.63 13.1 C-0.64 11.52, -0.63 9.58, 3.52 7.79 C7.68 5.99, 16.13 3.6, 26.56 2.35 C36.99 1.1, 58.51 0.8, 66.09 0.31 C73.68 -0.18, 71.8 -0.87, 72.08 -0.62 M96.89 0.47 C109.35 0.76, 124.36 2.06, 134.35 3.24 C144.33 4.43, 151.81 6.02, 156.77 7.59 C161.74 9.15, 164.38 11, 164.11 12.62 C163.84 14.24, 161.44 15.83, 155.15 17.3 C148.86 18.77, 137.34 20.6, 126.35 21.45 C115.37 22.3, 102.07 22.32, 89.22 22.39 C76.37 22.46, 60.97 22.36, 49.27 21.88 C37.56 21.4, 26.81 20.92, 18.98 19.53 C11.14 18.14, 4.63 15.32, 2.24 13.53 C-0.16 11.74, 0.83 10.63, 4.63 8.79 C8.42 6.94, 16.02 3.76, 25.02 2.46 C34.03 1.16, 46.72 1.46, 58.66 0.99 C70.6 0.51, 90.23 -0.32, 96.67 -0.38 C103.1 -0.43, 97.62 0.48, 97.29 0.66" stroke="#000000" stroke-width="1" fill="none"></path></g><g stroke-linecap="round" transform="translate(738.8386555557643 373.2200796404477) rotate(0 82.79939342167336 11.14912868159675)"><path d="M101.35 0.71 C113.34 0.78, 126.58 1.22, 136.28 2.28 C145.97 3.35, 154.66 5.33, 159.53 7.11 C164.4 8.89, 166.66 11.39, 165.5 12.96 C164.33 14.53, 159.58 15.15, 152.57 16.54 C145.56 17.92, 134.98 20.34, 123.46 21.26 C111.93 22.19, 96.54 22.1, 83.41 22.09 C70.29 22.08, 56.01 22.12, 44.7 21.22 C33.38 20.32, 22.97 18.25, 15.52 16.7 C8.07 15.14, 1.66 13.37, -0.01 11.89 C-1.68 10.42, 1.18 9.4, 5.5 7.84 C9.83 6.28, 16.71 3.64, 25.92 2.52 C35.13 1.4, 47.39 1.28, 60.78 1.09 C74.17 0.91, 97.7 1.32, 106.28 1.43 C114.85 1.54, 112.64 1.77, 112.25 1.74 M92.75 -1.31 C104.59 -1.12, 117.73 1.01, 128.51 2.43 C139.29 3.84, 151.33 5.86, 157.41 7.19 C163.5 8.52, 165.01 8.96, 165.02 10.42 C165.03 11.89, 163.33 14.49, 157.47 15.96 C151.61 17.42, 140.77 18.38, 129.83 19.22 C118.89 20.06, 104.75 20.6, 91.85 20.98 C78.94 21.37, 64.4 21.83, 52.4 21.52 C40.4 21.21, 27.95 20.53, 19.84 19.14 C11.73 17.74, 6.46 14.98, 3.72 13.13 C0.98 11.29, 0.72 9.51, 3.4 8.06 C6.09 6.61, 11.76 5.79, 19.85 4.44 C27.93 3.09, 39.87 0.5, 51.93 -0.05 C63.99 -0.61, 85.25 1.27, 92.2 1.09 C99.14 0.92, 93.74 -1.31, 93.6 -1.12" stroke="none" stroke-width="0" fill="#e64980"></path><path d="M91.64 -0.28 C103.72 -0.38, 117.36 0.34, 128.09 1.21 C138.82 2.07, 149.67 3.19, 156 4.89 C162.32 6.59, 166.07 9.71, 166.04 11.43 C166.01 13.15, 161.77 13.76, 155.83 15.21 C149.89 16.66, 140.58 18.93, 130.41 20.15 C120.24 21.37, 107.44 22.1, 94.79 22.51 C82.14 22.93, 66.53 23.13, 54.53 22.64 C42.53 22.16, 31.5 20.93, 22.79 19.6 C14.07 18.27, 5.66 16.65, 2.24 14.67 C-1.17 12.7, -0.67 9.42, 2.3 7.74 C5.27 6.06, 11.91 5.68, 20.08 4.57 C28.25 3.46, 38.76 1.73, 51.33 1.07 C63.9 0.41, 87.68 0.68, 95.51 0.62 C103.33 0.56, 98.41 0.54, 98.27 0.71 M61.1 1.13 C72.67 0.39, 88.65 -1.17, 101.31 -1.15 C113.97 -1.13, 127.22 -0.31, 137.04 1.25 C146.87 2.82, 155.46 6.35, 160.23 8.25 C165 10.15, 166.86 10.96, 165.65 12.65 C164.44 14.33, 160.03 16.95, 152.98 18.35 C145.93 19.75, 134.61 20.19, 123.38 21.04 C112.15 21.9, 98.2 23.3, 85.61 23.46 C73.01 23.62, 59.36 22.78, 47.81 21.98 C36.25 21.19, 23.96 20.06, 16.29 18.7 C8.63 17.33, 3.91 15.52, 1.82 13.78 C-0.27 12.04, -0.37 10.19, 3.77 8.27 C7.92 6.35, 17.28 3.54, 26.69 2.25 C36.1 0.97, 54.44 1.05, 60.25 0.56 C66.05 0.07, 61.14 -0.73, 61.5 -0.68" stroke="#000000" stroke-width="1" fill="none"></path></g><g stroke-linecap="round" transform="translate(308.23062600684534 265.1208314377776) rotate(0 82.88067846323952 37.444202481247686)"><path d="M0 0 C0 0, 0 0, 0 0 M0 0 C0 0, 0 0, 0 0 M-0.26 6.4 C1.46 5.42, 2.79 3.45, 4.99 0.36 M-0.26 6.4 C1.5 4.39, 3.49 2.54, 4.99 0.36 M0.13 12.04 C4.73 5.95, 7.83 1.28, 10.63 -0.03 M0.13 12.04 C2.75 7.75, 7.17 5.01, 10.63 -0.03 M-0.13 18.44 C4.78 13.13, 8.62 10.85, 15.62 0.33 M-0.13 18.44 C6.18 12.44, 11.59 4.88, 15.62 0.33 M0.27 24.08 C6.65 20.65, 8.4 13.05, 21.26 -0.07 M0.27 24.08 C7.69 14.06, 15.7 4.69, 21.26 -0.07 M0 30.48 C9.69 20.51, 17.13 11.93, 26.25 0.29 M0 30.48 C5.69 23.14, 13.23 16.91, 26.25 0.29 M-0.26 36.88 C6.02 28.67, 12.89 22.56, 31.89 -0.1 M-0.26 36.88 C13.03 23.14, 25.34 8.67, 31.89 -0.1 M0.14 42.52 C8.41 34.36, 17.9 24.64, 36.88 0.26 M0.14 42.52 C15.37 25.79, 28.63 9.84, 36.88 0.26 M-0.12 48.92 C11.66 35.78, 23.4 22.07, 42.52 -0.14 M-0.12 48.92 C17.46 30.44, 33.72 9.96, 42.52 -0.14 M0.27 54.56 C16.41 37.94, 29.67 19.63, 47.51 0.22 M0.27 54.56 C12.6 40.93, 26.07 25.84, 47.51 0.22 M0.01 60.96 C9.96 50.91, 21.58 35.01, 53.15 -0.17 M0.01 60.96 C18.17 38.35, 37.35 17.61, 53.15 -0.17 M-0.25 67.36 C11.25 51.85, 27.77 34.39, 58.14 0.19 M-0.25 67.36 C22.44 42.27, 43.42 16.54, 58.14 0.19 M0.14 73 C16.87 51.82, 36.69 31.79, 63.78 -0.21 M0.14 73 C19.64 50.26, 40.07 27.62, 63.78 -0.21 M1.85 77.13 C25.15 48.04, 53.1 21.07, 68.77 0.15 M1.85 77.13 C27.22 47.84, 54.76 16.5, 68.77 0.15 M7.49 76.74 C27.25 55.82, 48.35 31.37, 74.41 -0.24 M7.49 76.74 C32.48 48.27, 56.07 19.43, 74.41 -0.24 M12.48 77.1 C30.46 58.04, 46.72 35.43, 79.4 0.12 M12.48 77.1 C30.39 57.52, 49.16 34.94, 79.4 0.12 M18.12 76.7 C43.44 50.96, 66.98 24.78, 85.04 -0.28 M18.12 76.7 C38.91 54.01, 57.73 30.56, 85.04 -0.28 M23.11 77.06 C39.38 55.77, 57.68 39.16, 90.03 0.08 M23.11 77.06 C45.32 51.49, 67.66 24.5, 90.03 0.08 M28.75 76.67 C42.62 58.62, 56.48 45.1, 95.67 -0.31 M28.75 76.67 C51.48 48.93, 75.46 21.6, 95.67 -0.31 M33.74 77.03 C58.19 47.61, 84.12 18.67, 100.66 0.05 M33.74 77.03 C46.4 60.68, 59.97 44.66, 100.66 0.05 M39.38 76.64 C52.72 57.98, 68.41 40.88, 106.3 -0.34 M39.38 76.64 C56.98 58.32, 73.73 38.99, 106.3 -0.34 M44.37 77 C61.34 59.65, 78.71 37.76, 111.29 0.02 M44.37 77 C60.2 58.4, 75.26 40.27, 111.29 0.02 M50.01 76.6 C70.76 49.03, 92.95 23.52, 116.27 0.38 M50.01 76.6 C64.05 60.39, 77.29 44.52, 116.27 0.38 M55 76.96 C68.73 60.98, 83.52 44.22, 121.92 -0.02 M55 76.96 C73.36 55.38, 90.98 34.63, 121.92 -0.02 M60.64 76.57 C81.29 57.07, 96.85 35.08, 126.91 0.34 M60.64 76.57 C77.88 55.97, 97.51 36.21, 126.91 0.34 M65.63 76.93 C80.44 60.4, 95.12 43.22, 132.55 -0.05 M65.63 76.93 C88.03 50.27, 111.28 24.08, 132.55 -0.05 M71.27 76.53 C87.96 55.21, 104.42 38.48, 137.54 0.31 M71.27 76.53 C85.49 61.17, 100.28 45.47, 137.54 0.31 M76.26 76.89 C99.39 51.88, 116.72 28.3, 143.18 -0.09 M76.26 76.89 C98.31 49.03, 121.19 22.56, 143.18 -0.09 M81.9 76.5 C102.77 49.74, 126.32 24.37, 148.17 0.27 M81.9 76.5 C97.5 59.74, 110.87 41.35, 148.17 0.27 M86.89 76.86 C109.44 53.72, 128.22 31.57, 153.81 -0.12 M86.89 76.86 C108.28 50.85, 132.92 24.35, 153.81 -0.12 M92.53 76.46 C118.39 48.54, 143.71 18.56, 158.8 0.24 M92.53 76.46 C106.85 58.23, 122.03 41.32, 158.8 0.24 M97.52 76.82 C120.24 48.68, 144.43 21.43, 164.44 -0.16 M97.52 76.82 C116.39 56.9, 134.01 33.98, 164.44 -0.16 M103.16 76.43 C118.5 59.32, 135.55 42.47, 168.11 1.71 M103.16 76.43 C127.18 50.14, 151.02 21.78, 168.11 1.71 M108.15 76.79 C121.42 61.08, 136.89 47.38, 167.85 8.11 M108.15 76.79 C123.69 59.04, 139.88 41.95, 167.85 8.11 M113.79 76.39 C132.25 55.03, 150.36 34.59, 168.25 13.75 M113.79 76.39 C128.74 58.6, 144.17 41.3, 168.25 13.75 M118.78 76.75 C136.04 56.38, 151.04 36.42, 167.98 20.15 M118.78 76.75 C133.21 60.97, 147.41 44.03, 167.98 20.15 M123.77 77.11 C135.41 68.19, 141.68 57.6, 167.72 26.55 M123.77 77.11 C136.73 61.84, 149.76 47.72, 167.72 26.55 M129.41 76.72 C142.67 61.5, 155.78 44.42, 168.12 32.19 M129.41 76.72 C141.85 63.55, 153.21 49.5, 168.12 32.19 M134.4 77.08 C140.99 68.42, 149.88 58.93, 167.86 38.59 M134.4 77.08 C146.95 63.22, 160.74 47.43, 167.86 38.59 M140.04 76.69 C144.91 69.28, 152.18 62.77, 168.25 44.23 M140.04 76.69 C150.44 64.54, 160.11 53.85, 168.25 44.23 M145.03 77.05 C153.56 65.89, 161.44 60.06, 167.99 50.63 M145.03 77.05 C148.63 72, 153.89 65.72, 167.99 50.63 M150.67 76.65 C154.14 71.63, 159.13 66.45, 167.73 57.03 M150.67 76.65 C155.1 70.43, 160.09 66.31, 167.73 57.03 M155.66 77.01 C159.11 71.71, 162.1 65.55, 168.12 62.67 M155.66 77.01 C158.79 72.45, 164.08 68.45, 168.12 62.67 M161.3 76.62 C164.65 73.68, 166.3 71.09, 167.86 69.07 M161.3 76.62 C163.04 74.52, 165.38 71.91, 167.86 69.07" stroke="#7950f2" stroke-width="0.5" fill="none"></path><path d="M0 0 C44.31 -0.36, 87.35 -1.01, 165.76 0 M0 0 C40.57 -0.53, 83.42 -1.96, 165.76 0 M165.76 0 C166.3 16.07, 164.62 32.85, 165.76 74.89 M165.76 0 C167.1 29.86, 165.5 59.48, 165.76 74.89 M165.76 74.89 C105.18 76.32, 42.42 75.85, 0 74.89 M165.76 74.89 C107.51 73.64, 49.52 74.48, 0 74.89 M0 74.89 C-1.1 49.08, 2.48 21.58, 0 0 M0 74.89 C-0.31 50.26, -0.03 26.17, 0 0" stroke="#000000" stroke-width="1" fill="none"></path></g><g transform="translate(349.97528965488345 280.66136539688193) rotate(0 33.63807480197079 22.213822982433527)"><text x="33.638074801970795" y="31.134894292178814" font-family="Virgil, Segoe UI Emoji" font-size="35.54211677189367px" fill="#000000" text-anchor="middle" style="white-space: pre;" direction="ltr" dominant-baseline="alphabetic">API</text></g><g stroke-linecap="round" transform="translate(12.37648858176317 254.49805569952315) rotate(0 60.42201300703283 66.45660232354241)"><path d="M0 0 C0 0, 0 0, 0 0 M0 0 C0 0, 0 0, 0 0 M-0.26 6.4 C1.44 4.91, 2.87 2.9, 4.99 0.36 M-0.26 6.4 C1.25 5.08, 2.8 2.93, 4.99 0.36 M0.13 12.04 C3.8 5.94, 8.32 2.85, 10.63 -0.03 M0.13 12.04 C2.9 10.02, 3.85 6.84, 10.63 -0.03 M-0.13 18.44 C5.19 14.56, 8.42 8.97, 15.62 0.33 M-0.13 18.44 C3.81 13.46, 7.48 7.65, 15.62 0.33 M0.27 24.08 C6.22 14.98, 15.65 7.45, 21.26 -0.07 M0.27 24.08 C5.74 16.41, 12.63 9.44, 21.26 -0.07 M0 30.48 C10.01 19.79, 16.35 11.05, 26.25 0.29 M0 30.48 C6.32 25.03, 10.18 17.73, 26.25 0.29 M-0.26 36.88 C11.61 24.32, 25.52 9.76, 31.89 -0.1 M-0.26 36.88 C8.42 27.56, 15.77 17.31, 31.89 -0.1 M0.14 42.52 C12.82 30.36, 24.75 14.33, 36.88 0.26 M0.14 42.52 C8.75 32.04, 19.16 19.72, 36.88 0.26 M-0.12 48.92 C14.96 31.68, 33.59 12.04, 42.52 -0.14 M-0.12 48.92 C14.6 31.23, 28.91 14.83, 42.52 -0.14 M0.27 54.56 C17.06 33.94, 36.83 9.81, 47.51 0.22 M0.27 54.56 C12.34 41.08, 23.45 27.02, 47.51 0.22 M0.01 60.96 C10.95 46.57, 23.22 36.55, 53.15 -0.17 M0.01 60.96 C16.41 42.88, 33.05 23.68, 53.15 -0.17 M-0.25 67.36 C19.17 45.44, 37.1 26.55, 58.14 0.19 M-0.25 67.36 C16.97 46.3, 35.34 26.36, 58.14 0.19 M0.14 73 C16.23 56.15, 30.99 40.04, 63.78 -0.21 M0.14 73 C16.18 55.38, 31.17 37.79, 63.78 -0.21 M-0.12 79.4 C22.17 57.33, 42.41 33.68, 68.77 0.15 M-0.12 79.4 C14.89 62.34, 28.46 47.02, 68.77 0.15 M0.28 85.04 C19.83 63.24, 38.03 43.06, 74.41 -0.24 M0.28 85.04 C25.88 54.04, 53 24.2, 74.41 -0.24 M0.01 91.44 C20.56 65.18, 42.11 40.81, 79.4 0.12 M0.01 91.44 C17.63 70.3, 35.25 50.4, 79.4 0.12 M-0.25 97.84 C26.32 69.52, 50.21 37.39, 85.04 -0.28 M-0.25 97.84 C31.81 59.22, 63.65 23.06, 85.04 -0.28 M0.15 103.48 C28.84 73.79, 56.21 42.68, 90.03 0.08 M0.15 103.48 C22.74 76.25, 45.69 48.71, 90.03 0.08 M-0.11 109.88 C25.46 81.37, 55.2 49.37, 95.67 -0.31 M-0.11 109.88 C38.05 66.26, 76.12 24.01, 95.67 -0.31 M0.28 115.52 C32.63 78.67, 60.52 45.89, 100.66 0.05 M0.28 115.52 C36.57 73.46, 72.62 31.96, 100.66 0.05 M0.02 121.92 C38.44 77.33, 76.41 33.08, 106.3 -0.34 M0.02 121.92 C36.68 79.49, 71.76 36.69, 106.3 -0.34 M-0.24 128.32 C39.64 81.46, 75.4 38.71, 111.29 0.02 M-0.24 128.32 C41.94 78.85, 84.88 31, 111.29 0.02 M0.81 133.2 C37.13 90.27, 73.27 49.52, 116.27 0.38 M0.81 133.2 C42.9 83.97, 84.26 35.64, 116.27 0.38 M5.8 133.56 C44.45 89.42, 82.91 42.95, 121.26 0.74 M5.8 133.56 C40.21 93.69, 75.53 54.41, 121.26 0.74 M11.44 133.17 C34.78 103.79, 62.29 70.76, 121.66 6.38 M11.44 133.17 C43.25 99.71, 71.38 65.37, 121.66 6.38 M16.43 133.53 C51.92 92.91, 88.93 51.41, 121.4 12.78 M16.43 133.53 C50.32 95.14, 83.31 56.27, 121.4 12.78 M22.07 133.14 C61.57 89.1, 99.34 41.6, 121.13 19.17 M22.07 133.14 C45.22 107.88, 67.31 80.62, 121.13 19.17 M27.06 133.5 C51.86 101.61, 81.28 72.53, 121.53 24.82 M27.06 133.5 C61.41 93.83, 97.1 56.05, 121.53 24.82 M32.7 133.1 C66.29 95.53, 100.29 54.95, 121.27 31.21 M32.7 133.1 C56.38 102.9, 82.67 73.86, 121.27 31.21 M37.69 133.46 C57.25 111.43, 79.01 87.18, 121.66 36.86 M37.69 133.46 C71.87 96.06, 104.03 57.93, 121.66 36.86 M43.33 133.07 C74.37 97.67, 100.99 64.23, 121.4 43.26 M43.33 133.07 C64.67 108.77, 87.76 85.22, 121.4 43.26 M48.32 133.43 C71.83 106.4, 97.49 74.76, 121.14 49.65 M48.32 133.43 C66.2 110.4, 85.17 89.09, 121.14 49.65 M53.3 133.79 C72.81 113.94, 92.28 89.47, 121.53 55.3 M53.3 133.79 C73.49 109.87, 92.05 87.51, 121.53 55.3 M58.95 133.39 C75.14 118.16, 88.18 98.86, 121.27 61.69 M58.95 133.39 C76.64 114.52, 93.33 94.94, 121.27 61.69 M63.93 133.75 C83.63 111.84, 104.21 87.44, 121.67 67.34 M63.93 133.75 C75.32 120.75, 87.94 106.52, 121.67 67.34 M69.58 133.36 C82.05 115.5, 97.86 101.17, 121.4 73.74 M69.58 133.36 C83.28 117.28, 94.73 102.23, 121.4 73.74 M74.56 133.72 C82.28 124.14, 92.8 110.41, 121.14 80.13 M74.56 133.72 C91.36 115.01, 108.16 95.31, 121.14 80.13 M80.21 133.32 C92.74 116.81, 107.54 100.95, 121.54 85.78 M80.21 133.32 C89.93 121.51, 99.84 110.55, 121.54 85.78 M85.19 133.68 C93.39 124.23, 103.03 116.34, 121.28 92.17 M85.19 133.68 C95.7 122.13, 103.55 112.17, 121.28 92.17 M90.84 133.29 C101.59 121.61, 112.12 109.79, 121.67 97.82 M90.84 133.29 C96.59 126.71, 104.66 117.51, 121.67 97.82 M95.82 133.65 C103.63 126.55, 109.04 117.74, 121.41 104.21 M95.82 133.65 C104.19 123.36, 112.5 115.09, 121.41 104.21 M101.47 133.25 C108 125.62, 114.4 119.83, 121.15 110.61 M101.47 133.25 C108.6 126.02, 115.69 118.26, 121.15 110.61 M106.45 133.61 C109.44 126.19, 116.46 121.25, 121.54 116.26 M106.45 133.61 C111.98 128.54, 116.41 122.75, 121.54 116.26 M112.1 133.22 C115.22 129.82, 117.86 127.74, 121.28 122.65 M112.1 133.22 C115.65 129.26, 119.24 125.1, 121.28 122.65 M117.08 133.58 C118.21 132.65, 119.67 130.43, 121.68 128.3 M117.08 133.58 C118.31 132.6, 119.42 131.1, 121.68 128.3" stroke="#82c91e" stroke-width="0.5" fill="none"></path><path d="M0 0 C39.45 -0.66, 76.47 -1.3, 120.84 0 M0 0 C43.93 -1.52, 85.95 -1.21, 120.84 0 M120.84 0 C120.88 41.11, 123.44 80.05, 120.84 132.91 M120.84 0 C120.78 32.98, 122.38 64.77, 120.84 132.91 M120.84 132.91 C79.42 134.02, 42.79 134.22, 0 132.91 M120.84 132.91 C91.29 132.97, 61.93 131.55, 0 132.91 M0 132.91 C2.98 84.29, 1.81 35.59, 0 0 M0 132.91 C0.26 83.92, 0.88 33.91, 0 0" stroke="#000000" stroke-width="1" fill="none"></path></g><g transform="translate(17.37648858176317 297.9546580230656) rotate(0 55.42201300703283 23.000000000000014)"><text x="55.42201300703283" y="32.34401599506712" font-family="Virgil, Segoe UI Emoji" font-size="36.513326216398085px" fill="#000000" text-anchor="middle" style="white-space: pre;" direction="ltr" dominant-baseline="alphabetic">App2</text></g><g stroke-linecap="round" transform="translate(11.751802286048814 524.5432861773353) rotate(0 60.42201300703283 66.45660232354243)"><path d="M0 0 C0 0, 0 0, 0 0 M0 0 C0 0, 0 0, 0 0 M-0.26 6.4 C2.01 3.91, 3.31 1.79, 4.99 0.36 M-0.26 6.4 C1.66 4.18, 3.31 2.75, 4.99 0.36 M0.13 12.04 C2.53 9.6, 3.04 5.79, 10.63 -0.03 M0.13 12.04 C1.69 9, 4.08 7.26, 10.63 -0.03 M-0.13 18.44 C4.78 12.97, 6.2 10.79, 15.62 0.33 M-0.13 18.44 C4.99 10.74, 12.21 5.57, 15.62 0.33 M0.27 24.08 C10.11 14.47, 16.25 4.24, 21.26 -0.07 M0.27 24.08 C5.2 18.03, 10.41 14.11, 21.26 -0.07 M0 30.48 C5.27 23.81, 11.25 14.23, 26.25 0.29 M0 30.48 C5.98 21.87, 14.75 13.69, 26.25 0.29 M-0.26 36.88 C10.65 26.57, 17.14 17.35, 31.89 -0.1 M-0.26 36.88 C10.6 23.37, 23.21 9.65, 31.89 -0.1 M0.14 42.52 C15.31 24.93, 26.23 11.8, 36.88 0.26 M0.14 42.52 C10.75 29.73, 22.03 18.1, 36.88 0.26 M-0.12 48.92 C16.98 31.2, 31.11 15.84, 42.52 -0.14 M-0.12 48.92 C16.2 30.24, 33.19 11.86, 42.52 -0.14 M0.27 54.56 C18.28 31.96, 35.99 10.82, 47.51 0.22 M0.27 54.56 C17.74 33.35, 36.02 11.78, 47.51 0.22 M0.01 60.96 C22.52 38, 42.8 11.13, 53.15 -0.17 M0.01 60.96 C13.03 46, 27 29.15, 53.15 -0.17 M-0.25 67.36 C18.98 46.81, 35.72 27.38, 58.14 0.19 M-0.25 67.36 C19.18 45.98, 37.97 22.58, 58.14 0.19 M0.14 73 C17.37 54.74, 33.19 33.91, 63.78 -0.21 M0.14 73 C16.82 53.67, 32.75 33.92, 63.78 -0.21 M-0.12 79.4 C19.19 58.42, 33.48 35.72, 68.77 0.15 M-0.12 79.4 C22.36 53.65, 44.67 27.46, 68.77 0.15 M0.28 85.04 C28.52 53.99, 55.76 22.85, 74.41 -0.24 M0.28 85.04 C25.72 56.99, 50.93 27.64, 74.41 -0.24 M0.01 91.44 C28.15 58.52, 55.44 25.33, 79.4 0.12 M0.01 91.44 C30.89 56.13, 60.8 22.8, 79.4 0.12 M-0.25 97.84 C28.81 61.61, 60.66 30.03, 85.04 -0.28 M-0.25 97.84 C26.37 67.56, 54.32 35.33, 85.04 -0.28 M0.15 103.48 C19.7 82.58, 37.22 58.64, 90.03 0.08 M0.15 103.48 C31.53 66.26, 63.74 30.25, 90.03 0.08 M-0.11 109.88 C23.25 85.01, 45.39 59.16, 95.67 -0.31 M-0.11 109.88 C26.8 80.41, 52.59 49.86, 95.67 -0.31 M0.28 115.52 C22.67 88.88, 50.85 57.79, 100.66 0.05 M0.28 115.52 C27.87 83.84, 57.01 51.37, 100.66 0.05 M0.02 121.92 C24.86 91.78, 52.22 65.21, 106.3 -0.34 M0.02 121.92 C39.79 73.49, 82.18 26.44, 106.3 -0.34 M-0.24 128.32 C40.42 79.92, 86.47 31.18, 111.29 0.02 M-0.24 128.32 C30.21 94.86, 60.28 58.9, 111.29 0.02 M0.81 133.2 C24.11 106.06, 51.82 79.08, 116.27 0.38 M0.81 133.2 C31.36 97.28, 64.35 60.34, 116.27 0.38 M5.8 133.56 C45.34 85.99, 85.81 41.02, 121.26 0.74 M5.8 133.56 C32.18 104.92, 57.33 76.23, 121.26 0.74 M11.44 133.17 C56.09 80.49, 100.19 28.84, 121.66 6.38 M11.44 133.17 C39.33 98.8, 70.24 64.26, 121.66 6.38 M16.43 133.53 C54.4 91.33, 90.85 47.55, 121.4 12.78 M16.43 133.53 C46.17 98.37, 78 63.66, 121.4 12.78 M22.07 133.14 C41.82 106.68, 63.59 82.61, 121.13 19.17 M22.07 133.14 C54.6 93.82, 87.25 57.73, 121.13 19.17 M27.06 133.5 C50.51 109.91, 72.77 82.62, 121.53 24.82 M27.06 133.5 C47.75 112.98, 67.49 88.93, 121.53 24.82 M32.7 133.1 C60.86 99.52, 90.98 67.25, 121.27 31.21 M32.7 133.1 C64.07 98.17, 93.85 64.5, 121.27 31.21 M37.69 133.46 C64.75 103.95, 91.75 70.84, 121.66 36.86 M37.69 133.46 C69.22 96.16, 101.04 60.55, 121.66 36.86 M43.33 133.07 C68.02 102.44, 95.81 69.74, 121.4 43.26 M43.33 133.07 C61.31 115.22, 77.48 94.82, 121.4 43.26 M48.32 133.43 C71.7 104.24, 94.57 79.03, 121.14 49.65 M48.32 133.43 C76.67 100.88, 105.16 68.85, 121.14 49.65 M53.3 133.79 C77.33 105.63, 98.89 80.58, 121.53 55.3 M53.3 133.79 C77.01 105.4, 101.92 76.83, 121.53 55.3 M58.95 133.39 C75.6 111.95, 93.72 91.69, 121.27 61.69 M58.95 133.39 C76.7 113.03, 94.59 92.06, 121.27 61.69 M63.93 133.75 C82.48 112.37, 99.44 89.55, 121.67 67.34 M63.93 133.75 C79.45 116.05, 93.51 99.81, 121.67 67.34 M69.58 133.36 C82.47 119.66, 94.58 105.85, 121.4 73.74 M69.58 133.36 C83.86 115.03, 99.43 98.7, 121.4 73.74 M74.56 133.72 C92.04 112.19, 110.7 93.27, 121.14 80.13 M74.56 133.72 C87.1 119.11, 99 105.4, 121.14 80.13 M80.21 133.32 C94.17 116.75, 106.46 102.84, 121.54 85.78 M80.21 133.32 C93.65 118.12, 107.42 100.79, 121.54 85.78 M85.19 133.68 C97.97 122, 106.73 107.98, 121.28 92.17 M85.19 133.68 C97.67 118.85, 112.56 101.77, 121.28 92.17 M90.84 133.29 C100.41 122.95, 105.61 113.89, 121.67 97.82 M90.84 133.29 C99.76 123.06, 107.35 114.54, 121.67 97.82 M95.82 133.65 C99.01 128.87, 106.67 119.82, 121.41 104.21 M95.82 133.65 C104.18 124.69, 113.65 113.43, 121.41 104.21 M101.47 133.25 C107.05 128.22, 114.59 119.18, 121.15 110.61 M101.47 133.25 C106.3 128.73, 110.66 122.46, 121.15 110.61 M106.45 133.61 C110.93 127.83, 115.15 122.5, 121.54 116.26 M106.45 133.61 C111.17 128.41, 114.94 124.78, 121.54 116.26 M112.1 133.22 C114.74 131.4, 118.13 126.73, 121.28 122.65 M112.1 133.22 C115.67 129.18, 118.6 125.62, 121.28 122.65 M117.08 133.58 C117.89 132.41, 118.63 131.89, 121.68 128.3 M117.08 133.58 C118.55 132.07, 119.71 130.57, 121.68 128.3" stroke="#12b886" stroke-width="0.5" fill="none"></path><path d="M0 0 C35.14 -0.9, 73.47 -1.39, 120.84 0 M0 0 C40.81 0.52, 83.44 1.69, 120.84 0 M120.84 0 C122.32 45.98, 119.34 89.65, 120.84 132.91 M120.84 0 C120.26 42.4, 119.87 86.29, 120.84 132.91 M120.84 132.91 C79.67 133.93, 35.37 133.16, 0 132.91 M120.84 132.91 C89.5 132.56, 57.66 132.6, 0 132.91 M0 132.91 C-0.57 86.62, 0.31 38.4, 0 0 M0 132.91 C0.5 92.1, -0.27 50.83, 0 0" stroke="#000000" stroke-width="1" fill="none"></path></g><g transform="translate(16.751802286048814 544.9998885008778) rotate(0 55.42201300703283 46)"><text x="55.42201300703283" y="32.34401599506712" font-family="Virgil, Segoe UI Emoji" font-size="36.513326216398085px" fill="#000000" text-anchor="middle" style="white-space: pre;" direction="ltr" dominant-baseline="alphabetic">End </text><text x="55.42201300703283" y="78.34401599506711" font-family="Virgil, Segoe UI Emoji" font-size="36.513326216398085px" fill="#000000" text-anchor="middle" style="white-space: pre;" direction="ltr" dominant-baseline="alphabetic">User</text></g><g stroke-linecap="round"><g transform="translate(135.42481018062927 570.8832025561051) rotate(0 84.88096569002721 -113.94209023849777)"><path d="M-0.79 0.71 C27.4 -37.08, 140.16 -189.04, 168.68 -227.34 M1 0.04 C29.58 -38.05, 142.68 -191.11, 170.83 -229.17" stroke="#000000" stroke-width="1" fill="none"></path></g><g transform="translate(135.42481018062927 570.8832025561051) rotate(0 84.88096569002721 -113.94209023849777)"><path d="M169.72 -228.13 L168.47 -215.48 L156.91 -221.8 L171.18 -230.9" stroke="none" stroke-width="0" fill="#000000" fill-rule="evenodd"></path><path d="M170.83 -229.17 C170.85 -226.63, 169.85 -220.63, 167.84 -214.47 M170.83 -229.17 C170.04 -225.83, 169.72 -223.48, 167.84 -214.47 M167.84 -214.47 C163.01 -216.56, 159.93 -221.6, 157.65 -222.01 M167.84 -214.47 C164.66 -216.95, 161.49 -220.04, 157.65 -222.01 M157.65 -222.01 C161.1 -224.44, 165.66 -226.43, 170.83 -229.17 M157.65 -222.01 C162.72 -225.06, 167.21 -226.21, 170.83 -229.17 M170.83 -229.17 C170.83 -229.17, 170.83 -229.17, 170.83 -229.17 M170.83 -229.17 C170.83 -229.17, 170.83 -229.17, 170.83 -229.17" stroke="#000000" stroke-width="1" fill="none"></path></g></g><mask></mask><g stroke-linecap="round"><g transform="translate(134.82132907019604 303.50938109671597) rotate(0 85.58131964304255 0.3784964204670729)"><path d="M0.71 -1.08 C29.43 -0.73, 143.5 1.22, 171.71 1.34 M-0.37 0.97 C28.29 1.04, 142.27 -0.38, 171.05 -0.48" stroke="#000000" stroke-width="1" fill="none"></path></g><g transform="translate(134.82132907019604 303.50938109671597) rotate(0 85.58131964304255 0.3784964204670729)"><path d="M172.1 0.14 L156.5 5.23 L157.61 -6.35 L169.33 -1.26" stroke="none" stroke-width="0" fill="#000000" fill-rule="evenodd"></path><path d="M171.05 -0.48 C166.27 1.9, 164.95 1.37, 157.51 5.97 M171.05 -0.48 C168.6 1.08, 165.18 2.92, 157.51 5.97 M157.51 5.97 C158.18 1.27, 156.12 -3.74, 157.4 -6.71 M157.51 5.97 C157.6 1.64, 156.92 -3.15, 157.4 -6.71 M157.4 -6.71 C162.17 -4.98, 167.31 -1.54, 171.05 -0.48 M157.4 -6.71 C161.57 -4.14, 167.82 -2.12, 171.05 -0.48 M171.05 -0.48 C171.05 -0.48, 171.05 -0.48, 171.05 -0.48 M171.05 -0.48 C171.05 -0.48, 171.05 -0.48, 171.05 -0.48" stroke="#000000" stroke-width="1" fill="none"></path></g></g><mask></mask><g stroke-linecap="round"><g transform="translate(477.4589634371423 306.50536134596825) rotate(0 128.08060186773037 -1.6091677262222817)"><path d="M-1.08 0.55 C41.84 -0.3, 214.06 -3.63, 256.74 -4.39 M0.56 -0.21 C43.44 -1.02, 213.3 -2.98, 256.1 -3.47" stroke="#000000" stroke-width="1" fill="none"></path></g><g transform="translate(477.4589634371423 306.50536134596825) rotate(0 128.08060186773037 -1.6091677262222817)"><path d="M-0.45 -0.46 L11.65 -5.84 L12.99 4.9 L-1.86 -0.26" stroke="none" stroke-width="0" fill="#000000" fill-rule="evenodd"></path><path d="M-1.08 0.55 C2.72 -0.16, 3.74 -3.84, 12.39 -6.05 M-1.08 0.55 C2.33 -1.32, 5.99 -1.9, 12.39 -6.05 M12.39 -6.05 C12.73 -2.29, 12.83 4.69, 12.64 6.62 M12.39 -6.05 C12.79 -3.74, 12.7 0.1, 12.64 6.62 M12.64 6.62 C7.53 4.88, 4.19 3.43, -1.08 0.55 M12.64 6.62 C10.18 5.91, 7.14 4.22, -1.08 0.55 M-1.08 0.55 C-1.08 0.55, -1.08 0.55, -1.08 0.55 M-1.08 0.55 C-1.08 0.55, -1.08 0.55, -1.08 0.55" stroke="#000000" stroke-width="1" fill="none"></path></g><g transform="translate(477.4589634371423 306.50536134596825) rotate(0 128.08060186773037 -1.6091677262222817)"><path d="M256.72 -4.47 L241.84 3.24 L242.78 -11.37 L255.32 -4.27" stroke="none" stroke-width="0" fill="#000000" fill-rule="evenodd"></path><path d="M256.1 -3.47 C253.65 -1.34, 248.33 -1.95, 242.58 3.03 M256.1 -3.47 C253.17 -2.12, 250.5 0.37, 242.58 3.03 M242.58 3.03 C242.9 -3.11, 242.84 -6.03, 242.43 -9.65 M242.58 3.03 C242.82 -0.48, 242.64 -2.47, 242.43 -9.65 M242.43 -9.65 C246.45 -7.27, 252.29 -4.6, 256.1 -3.47 M242.43 -9.65 C245.72 -7.58, 248.32 -6.74, 256.1 -3.47 M256.1 -3.47 C256.1 -3.47, 256.1 -3.47, 256.1 -3.47 M256.1 -3.47 C256.1 -3.47, 256.1 -3.47, 256.1 -3.47" stroke="#000000" stroke-width="1" fill="none"></path></g></g><mask></mask><g stroke-linecap="round" transform="translate(10 10) rotate(0 60.42201300703283 66.45660232354243)"><path d="M0 0 C0 0, 0 0, 0 0 M0 0 C0 0, 0 0, 0 0 M-0.26 6.4 C1.38 5.35, 3.11 2.62, 4.99 0.36 M-0.26 6.4 C1.65 3.74, 3.79 1.8, 4.99 0.36 M0.13 12.04 C3.42 10.38, 3.18 6.51, 10.63 -0.03 M0.13 12.04 C3.18 9.43, 5.42 6.1, 10.63 -0.03 M-0.13 18.44 C3.51 13.54, 6.56 6.85, 15.62 0.33 M-0.13 18.44 C4.53 11.85, 10.98 6.08, 15.62 0.33 M0.27 24.08 C4.92 15.62, 12.58 8.72, 21.26 -0.07 M0.27 24.08 C7.86 15.71, 13.69 8.27, 21.26 -0.07 M0 30.48 C7 25.81, 9.24 17.52, 26.25 0.29 M0 30.48 C9.73 19.88, 20.46 8.26, 26.25 0.29 M-0.26 36.88 C8.84 28.26, 15.02 17.56, 31.89 -0.1 M-0.26 36.88 C10.34 25.8, 20.57 12.88, 31.89 -0.1 M0.14 42.52 C7.84 32.63, 18.99 19.1, 36.88 0.26 M0.14 42.52 C13.48 27.21, 28.53 10.78, 36.88 0.26 M-0.12 48.92 C15.17 30.7, 29.2 14.7, 42.52 -0.14 M-0.12 48.92 C15.72 29.81, 33.11 9.11, 42.52 -0.14 M0.27 54.56 C12.11 41.61, 22.5 27.1, 47.51 0.22 M0.27 54.56 C10.07 42.3, 20.43 32.43, 47.51 0.22 M0.01 60.96 C15.76 43.69, 32.38 24.43, 53.15 -0.17 M0.01 60.96 C17.17 41.66, 33.38 23.89, 53.15 -0.17 M-0.25 67.36 C16.53 46.21, 35.21 27.1, 58.14 0.19 M-0.25 67.36 C14.26 51.74, 27.96 36.42, 58.14 0.19 M0.14 73 C17.17 55.11, 31.86 37.52, 63.78 -0.21 M0.14 73 C20.04 52.32, 38.64 30.73, 63.78 -0.21 M-0.12 79.4 C15.23 61.56, 28.41 46.96, 68.77 0.15 M-0.12 79.4 C17.46 59.3, 34.37 40.23, 68.77 0.15 M0.28 85.04 C25.11 54.05, 52.65 25.09, 74.41 -0.24 M0.28 85.04 C19.71 60.96, 39.82 38.03, 74.41 -0.24 M0.01 91.44 C17.61 69.52, 35.73 49.42, 79.4 0.12 M0.01 91.44 C24.07 64.38, 47.06 35.61, 79.4 0.12 M-0.25 97.84 C32.17 58.34, 63.18 23.58, 85.04 -0.28 M-0.25 97.84 C26.53 69.12, 52.57 39.35, 85.04 -0.28 M0.15 103.48 C22.12 76.14, 44.85 47.71, 90.03 0.08 M0.15 103.48 C25 76.04, 51.62 46.53, 90.03 0.08 M-0.11 109.88 C38.18 65.56, 76.8 24.2, 95.67 -0.31 M-0.11 109.88 C30.18 75.45, 58.24 42.82, 95.67 -0.31 M0.28 115.52 C36.02 72.9, 71.83 31.65, 100.66 0.05 M0.28 115.52 C36.94 73.98, 72.91 32.31, 100.66 0.05 M0.02 121.92 C37.52 79.97, 71.2 36.36, 106.3 -0.34 M0.02 121.92 C37.34 77.92, 72.73 36.41, 106.3 -0.34 M-0.24 128.32 C42.06 78.19, 85.24 31.6, 111.29 0.02 M-0.24 128.32 C35.42 87.59, 70.64 47.48, 111.29 0.02 M0.81 133.2 C43.22 83.36, 83.43 35.61, 116.27 0.38 M0.81 133.2 C39.69 88.67, 78.22 43.23, 116.27 0.38 M5.8 133.56 C39.56 92.95, 75.4 54.4, 121.26 0.74 M5.8 133.56 C31.28 101.74, 59.41 68.69, 121.26 0.74 M11.44 133.17 C44.12 100.15, 70.62 65.71, 121.66 6.38 M11.44 133.17 C48.88 89.89, 87.09 46.47, 121.66 6.38 M16.43 133.53 C50.39 95.25, 82.81 56.12, 121.4 12.78 M16.43 133.53 C58.28 86.52, 99.29 37.33, 121.4 12.78 M22.07 133.14 C45.58 108.66, 67.39 79.88, 121.13 19.17 M22.07 133.14 C48.81 100.39, 78.44 68.68, 121.13 19.17 M27.06 133.5 C60.68 92.89, 97.61 56.95, 121.53 24.82 M27.06 133.5 C63.66 92.35, 99.98 49.83, 121.53 24.82 M32.7 133.1 C55.5 102.23, 82.75 73.31, 121.27 31.21 M32.7 133.1 C53.52 108.87, 75.84 83.59, 121.27 31.21 M37.69 133.46 C72.81 96.56, 104.74 57.53, 121.66 36.86 M37.69 133.46 C70.08 95.86, 100.52 59.44, 121.66 36.86 M43.33 133.07 C63.72 108.47, 88.43 86.07, 121.4 43.26 M43.33 133.07 C69.44 103.29, 96.34 71.28, 121.4 43.26 M48.32 133.43 C65.27 109.45, 84.58 88.25, 121.14 49.65 M48.32 133.43 C68.88 111.16, 89.22 86.73, 121.14 49.65 M53.3 133.79 C74.02 109.14, 91.35 87.18, 121.53 55.3 M53.3 133.79 C70.41 116.03, 85.79 96.18, 121.53 55.3 M58.95 133.39 C77.35 115.07, 93.77 95.42, 121.27 61.69 M58.95 133.39 C80.55 108.83, 102.6 83.11, 121.27 61.69 M63.93 133.75 C74.77 120.88, 88.37 105.83, 121.67 67.34 M63.93 133.75 C78.95 114.89, 95.64 97.62, 121.67 67.34 M69.58 133.36 C84.16 116.39, 93.87 101.47, 121.4 73.74 M69.58 133.36 C78.93 121.69, 90 108.14, 121.4 73.74 M74.56 133.72 C91.6 115.14, 108.68 94.74, 121.14 80.13 M74.56 133.72 C89.39 115.65, 105.26 97.98, 121.14 80.13 M80.21 133.32 C89.57 121.56, 99.2 111.38, 121.54 85.78 M80.21 133.32 C89.58 122.66, 99.55 112.79, 121.54 85.78 M85.19 133.68 C96.54 121.93, 102.62 113.08, 121.28 92.17 M85.19 133.68 C97.27 120.29, 109.17 106.76, 121.28 92.17 M90.84 133.29 C95.64 127.66, 105.14 116.89, 121.67 97.82 M90.84 133.29 C100.06 123.75, 108.13 113.18, 121.67 97.82 M95.82 133.65 C103.89 122.85, 112.09 115.98, 121.41 104.21 M95.82 133.65 C104.49 123.69, 113.02 114.66, 121.41 104.21 M101.47 133.25 C108.8 126.59, 116.08 119.02, 121.15 110.61 M101.47 133.25 C106.96 125.01, 114.43 117.99, 121.15 110.61 M106.45 133.61 C112.76 128.74, 117.01 122.46, 121.54 116.26 M106.45 133.61 C111.26 128.13, 115.82 123.57, 121.54 116.26 M112.1 133.22 C115.79 129.23, 119.58 124.79, 121.28 122.65 M112.1 133.22 C114.63 130.72, 117.49 126.89, 121.28 122.65 M117.08 133.58 C118.51 132.85, 119.64 131.08, 121.68 128.3 M117.08 133.58 C118.92 131.72, 120.19 130.22, 121.68 128.3" stroke="#82c91e" stroke-width="0.5" fill="none"></path><path d="M0 0 C44.41 -2.5, 85.01 -1.86, 120.84 0 M0 0 C35.24 0.61, 72.08 0.52, 120.84 0 M120.84 0 C119.84 33.23, 123.05 64.07, 120.84 132.91 M120.84 0 C120 43.74, 121.45 87.33, 120.84 132.91 M120.84 132.91 C91.49 133.45, 62.53 130.61, 0 132.91 M120.84 132.91 C77.02 133.87, 31.72 134.11, 0 132.91 M0 132.91 C0.63 84.69, 1.86 34.46, 0 0 M0 132.91 C-0.2 89.57, -0.33 47.65, 0 0" stroke="#000000" stroke-width="1" fill="none"></path></g><g transform="translate(15 53.45660232354243) rotate(0 55.42201300703283 23)"><text x="55.42201300703283" y="32.34401599506712" font-family="Virgil, Segoe UI Emoji" font-size="36.513326216398085px" fill="#000000" text-anchor="middle" style="white-space: pre;" direction="ltr" dominant-baseline="alphabetic">App1</text></g><g stroke-linecap="round"><g transform="translate(133.3729688677031 76.3748587455947) rotate(0 87.37661232191942 91.71384560557107)"><path d="M-1.17 -1.13 C27.73 29.33, 144.54 152.54, 173.97 183.36 M0.42 0.89 C29.66 31.5, 147.18 154.73, 176.27 184.86" stroke="#000000" stroke-width="1" fill="none"></path></g><g transform="translate(133.3729688677031 76.3748587455947) rotate(0 87.37661232191942 91.71384560557107)"><path d="M176.48 185.21 L160.56 178.66 L170.63 170.71 L175.62 185.75" stroke="none" stroke-width="0" fill="#000000" fill-rule="evenodd"></path><path d="M176.27 184.86 C170 181.87, 166.49 181.75, 162.28 179.43 M176.27 184.86 C172.35 183.88, 166.59 181.89, 162.28 179.43 M162.28 179.43 C166.17 175.68, 168.65 173.81, 171.43 170.66 M162.28 179.43 C165.89 176.57, 168.42 173.26, 171.43 170.66 M171.43 170.66 C173.63 172.99, 175.07 176.79, 176.27 184.86 M171.43 170.66 C173.51 176.09, 175.56 180.82, 176.27 184.86 M176.27 184.86 C176.27 184.86, 176.27 184.86, 176.27 184.86 M176.27 184.86 C176.27 184.86, 176.27 184.86, 176.27 184.86" stroke="#000000" stroke-width="1" fill="none"></path></g></g><mask></mask><g stroke-opacity="0.9" fill-opacity="0.9" transform="translate(746.4463967239942 410.71629903259895) rotate(0 72.35359485706931 31.734032832047944)"><text x="72.35359485706928" y="22.2392102086992" font-family="Virgil, Segoe UI Emoji" font-size="25.38722626563834px" fill="#000000" text-anchor="middle" style="white-space: pre;" direction="ltr" dominant-baseline="alphabetic">Subscription</text><text x="72.35359485706928" y="53.973243040747136" font-family="Virgil, Segoe UI Emoji" font-size="25.38722626563834px" fill="#000000" text-anchor="middle" style="white-space: pre;" direction="ltr" dominant-baseline="alphabetic">Data</text></g><g transform="translate(299.3124020827797 354.7388906691225) rotate(0 178.97994517275026 12.0589324761782)"><text x="178.9799451727503" y="19.35776002754924" font-family="Cascadia, Segoe UI Emoji" font-size="20.30978101251067px" fill="#000000" text-anchor="middle" style="white-space: pre;" direction="ltr" dominant-baseline="alphabetic"> [base-path]/webhooks/&lt;entity&gt;</text></g></svg>