<svg version="1.1" xmlns="http://www.w3.org/2000/svg" viewBox="0 0 914.437442399111 667.4564908244201" width="914.437442399111" height="667.4564908244201">
  <!-- svg-source:excalidraw -->
  
  <defs>
    <style>
      @font-face {
        font-family: "Virgil";
        src: url("https://excalidraw.com/Virgil.woff2");
      }
      @font-face {
        font-family: "Cascadia";
        src: url("https://excalidraw.com/Cascadia.woff2");
      }
    </style>
  </defs>
  <g stroke-linecap="round" transform="translate(736.5327322380961 229.60523406341596) rotate(0 83.5 77.34240919102336)"><path d="M0 0 C0 0, 0 0, 0 0 M0 0 C0 0, 0 0, 0 0 M-0.07 7.04 C1.52 4.2, 3.01 1.21, 5.23 1.09 M0.08 6.3 C1.73 3.82, 3.49 1.47, 4.67 0.34 M-0.62 13.14 C2 8.27, 5.58 5, 9.79 -0.49 M-0.03 12.61 C3.74 7.55, 7.7 3.7, 11.37 0.07 M0.71 19.83 C2.41 14.03, 8.28 8.85, 17 1.66 M-0.5 18.78 C5.17 11.17, 11.57 5.42, 15 1.05 M1.53 25.88 C5.69 18.51, 13.34 12.8, 22.4 -1.14 M0.54 24.92 C6.34 16.56, 13.8 7.28, 20.76 -0.95 M-1.89 30.64 C8.32 17.74, 22.39 6.77, 24.89 1.5 M-0.5 29.83 C10.1 19.26, 19.37 9.21, 25.43 0.39 M-0.44 37.07 C12.87 23.85, 22.43 9.67, 31.63 1.38 M0.04 37.06 C7.68 29.01, 14.62 19.72, 31.52 0.89 M-0.05 40.91 C9.15 32.7, 20.64 21.37, 36.96 -1.69 M-0.64 42.47 C7.67 32.97, 15.43 25.34, 37.56 0.07 M0.66 49.7 C14.02 30.55, 30.62 14.16, 41.94 0.78 M-0.4 48.6 C14.44 31.01, 31.38 13.99, 41.74 0.34 M1.31 56.12 C11.42 43.11, 18.31 33.99, 49.43 0.65 M0.79 54.62 C16.44 35.69, 32.94 18.93, 47.93 1.1 M-1.23 60.74 C12.05 42.93, 27.03 27.81, 51.6 -2.14 M0.93 60.47 C19.56 37.86, 39.2 15.3, 53.34 -0.08 M-1.86 65.44 C18.84 48.19, 33.97 26.46, 57.05 -0.92 M-1.11 66.75 C12.46 51.5, 25.27 36.48, 58.57 0.73 M-0.99 72.34 C25.22 44.62, 50.77 17.21, 62.35 -1.59 M-0.15 73.13 C18.84 50.07, 40.08 26.92, 63.22 -1.09 M-0.11 80.76 C17.99 60.74, 33.88 41.19, 67.09 0.09 M-0.34 79.79 C22.91 51.95, 46.26 25.89, 67.99 -0.5 M-0.96 86.64 C19.08 63.95, 35.69 46.01, 73.49 -0.84 M0.71 84.29 C16.21 67.15, 31.24 49.61, 74.25 0.33 M-0.42 91.22 C26.98 60.17, 53.07 28.32, 81.38 0.17 M-0.86 90.73 C16.5 71, 34.79 51.91, 80.18 0.2 M-1.62 96.49 C17.89 75.73, 39.35 53.99, 83.84 -2.17 M0.66 98.69 C19.14 75.46, 38.61 53.93, 84.31 0 M-1.6 102.14 C25.22 72.4, 49.69 45.44, 90.24 -0.24 M1 102.57 C35.48 63.61, 70.17 23.16, 89.64 0.9 M-0.94 108.47 C32.81 70.08, 64.47 30.32, 93.78 -0.9 M-0.71 110.07 C33.33 69.75, 69.04 27.6, 95.23 -0.52 M-0.9 113.84 C39.65 70.87, 79.73 27.6, 102.56 1.28 M0.92 116.05 C24.41 86.21, 49.55 57.84, 100.31 -0.09 M-0.32 121.36 C36.25 79.04, 75.14 37.38, 107.18 0.62 M-0.27 122.7 C37.21 78.96, 73.72 35.3, 105.85 -0.9 M-0.72 128.34 C33.06 87.04, 67.44 48.32, 111.74 -0.89 M-1.13 127.45 C39.31 79.96, 81.35 35.24, 110.66 0.85 M0.02 133.18 C35.04 94.89, 69.21 54.83, 116.81 -0.24 M0.24 133.36 C38.37 90.97, 77.27 46.67, 116.33 -0.27 M0.04 140.37 C47.48 88.88, 95.51 32.76, 121.72 1.6 M0.8 140.56 C46.69 87.27, 94.26 33.47, 122.62 -0.45 M-1.61 147.89 C28.77 113.88, 55 84.14, 124.93 0.6 M0.57 145.11 C48.89 91.01, 94.79 37.06, 127.79 0.73 M0.06 151.96 C36.2 113.69, 68.89 71.74, 132.91 0.97 M-0.29 152.21 C43.03 99.59, 88.9 48.22, 132.6 -0.76 M2.8 156.01 C39.08 114.05, 76.66 68.85, 137.4 0.44 M2.21 156.71 C52.38 98.11, 103.65 38.32, 137.38 -0.44 M7.42 154.98 C43.09 115.42, 77.86 76.41, 144.31 -0.14 M8.19 155.87 C52.43 104.74, 96.07 52.41, 142.59 -0.85 M11.08 158.01 C42.65 118.57, 77.71 80.25, 148.16 0.79 M12.85 155.83 C65.5 97.41, 118.7 37.55, 147.84 -0.55 M18.5 154.97 C49.86 116.56, 85.33 78.74, 155.53 0.12 M17.39 156.58 C48.51 120.32, 80.69 83.88, 154.64 -0.11 M23.03 155.26 C67.81 104.75, 112.2 52.72, 157.04 -1.51 M23.47 156.57 C56.15 117.98, 90.57 80.68, 157.97 -0.38 M28.18 155.8 C70.95 105.95, 114.57 55.27, 164.84 -1.6 M28.09 156.63 C57 124.14, 84.57 92.7, 165.09 0.51 M31.95 154.72 C62.21 121.18, 93.56 89.42, 169.67 2.72 M33.78 157.23 C79.12 103.24, 125.03 51.16, 168.66 0.75 M37.56 154.75 C86.48 105.22, 130.24 52.04, 167.91 5.79 M39.97 155.15 C90.04 99.7, 138.38 43.82, 167.57 6.89 M46.01 156.24 C72.46 121.87, 101.01 89.74, 169.81 14.61 M43.88 157.37 C75.5 119.83, 107.25 82.17, 168.02 13.92 M49.86 155.83 C80.07 121.86, 108.56 88.66, 168.57 18.02 M50.68 156.87 C92.99 106.98, 135.91 57.15, 168.43 20.23 M53.32 158.08 C91.22 114.23, 128.91 73.64, 168.19 25.85 M55.44 156.35 C95.01 108.97, 137 60.6, 167.86 26.75 M59.54 156.03 C86.95 123.78, 115.13 92.36, 168.45 32.51 M60.7 155.5 C96.18 112.88, 134.89 70.85, 167.99 31.78 M65.71 157.8 C97.51 115.96, 134.29 74.88, 169.95 37.78 M64.61 157.16 C85.07 133.41, 105.75 109.54, 168.18 38.19 M69.98 156.1 C98.28 123.59, 128.1 89.44, 167.08 46.12 M69.85 157.22 C107.39 112.57, 144.38 70.48, 167.42 44.3 M77.75 155.12 C103.58 122.04, 135.26 88.35, 168.29 51.73 M77 156.99 C100.07 128.36, 124.67 100, 168.68 49.25 M82.06 155.5 C114.66 118.18, 151.06 75.99, 166.49 57.42 M80.94 156.68 C108.74 125.19, 134.21 94.49, 168.32 55.51 M88.51 157.73 C118.09 120.48, 147.74 83.67, 169.94 60.03 M86.74 156.26 C108.66 130.8, 129.83 106.76, 169 62.68 M92.26 154.9 C112.8 130, 137.5 104.23, 169.28 69.19 M90.8 156.6 C111.53 134.45, 129.91 113.16, 167.81 67.7 M95.63 155.31 C118.94 133.31, 141.07 105.5, 168.5 76.69 M97.41 155.67 C112.38 137.64, 129.86 119.53, 169.14 74.74 M101.19 155.22 C130.58 125.88, 155.19 96.3, 167.23 79.45 M101.87 155.68 C122.41 134.7, 140.49 112.25, 168.15 79.63 M109.27 157.49 C125.77 137.21, 143.35 117.8, 169.09 88.45 M107.08 155.21 C123.26 139.42, 138.76 120.73, 169.05 87.23 M111.04 156.31 C125.3 141.42, 138.4 126.85, 170.63 92.17 M112.6 156.4 C135 130.41, 157.69 105.46, 169.1 92.36 M118.1 155.87 C135.41 134.66, 158.11 111.24, 170.37 97.28 M119.31 157.09 C132.74 138.2, 147.46 121.85, 167.67 98.95 M123.5 155.02 C133.35 146.5, 143.34 132.38, 169.69 104.06 M124.43 156 C138.71 140.12, 152.61 122.4, 168.22 104.96 M127.35 158.02 C141.71 142.65, 155.78 127.08, 169.21 111.35 M130.15 156.83 C137.35 146.84, 146.09 136.04, 168.61 111.73 M133.82 155.15 C142.97 146.55, 155.54 133.06, 167.09 115.52 M134.74 155.48 C143.36 146.34, 153.17 133.97, 168.54 116.48 M140.76 157.48 C148.37 146.61, 154.37 141.86, 169.99 123.82 M139.12 156.17 C148.28 145.26, 158.65 134.8, 168.45 122.14 M144.74 157.48 C150.86 148.3, 158.88 140.13, 168.07 129.19 M143.95 156.62 C150.69 148.41, 156.32 141.12, 167.61 129.53 M150.61 155.76 C158.31 147.8, 162.15 141.52, 169.97 135.57 M150.24 156.17 C155.5 152.28, 159.57 147.32, 169.1 135.29 M156.57 157.75 C158.48 153.18, 162.93 149.01, 169.08 140.92 M156.44 156.96 C160.34 151.03, 164.78 146.13, 169.12 142.22 M160.38 156.2 C162.92 153.8, 165.14 151.17, 168.14 146.86 M161.09 156.06 C163.85 153.01, 167.5 149.43, 167.86 147.2" stroke="#e64980" stroke-width="0.5" fill="none"></path><path d="M-0.07 -0.77 C51.4 1.4, 105.99 0.97, 167.71 -0.67 M-0.9 0.45 C42.26 -1.97, 82.61 -1.65, 166.94 0.52 M168.91 1.81 C165.42 52.72, 166.98 100.93, 167.49 156.01 M167.49 -0.94 C167.68 36.07, 167.78 70.59, 166.97 154.33 M165.13 156.09 C111.79 156.8, 61.97 156.23, 0.61 155.73 M167.36 155.46 C105.44 155.42, 42.14 155.52, 0.61 155.34 M-1.01 153.95 C-0.6 117.24, -2.53 78.32, -0.8 0.04 M0.41 154.9 C-0.26 113.01, -1.08 71.78, 0.1 0.33" stroke="#000000" stroke-width="1" fill="none"></path></g><g stroke-linecap="round" transform="translate(738.4212882065221 217.78355419132572) rotate(0 82.79939342167336 11.149128681596764)"><path d="M69.83 0.36 C81.66 -0.24, 97.33 -0.2, 109.37 0.28 C121.41 0.77, 133.23 1.94, 142.07 3.28 C150.91 4.63, 158.65 6.56, 162.41 8.37 C166.17 10.18, 167.31 12.37, 164.62 14.15 C161.92 15.92, 154.37 17.97, 146.22 19.03 C138.06 20.09, 127.37 20.12, 115.67 20.5 C103.98 20.88, 88.84 21.28, 76.02 21.29 C63.2 21.3, 49.7 21.47, 38.73 20.57 C27.75 19.68, 16.76 17.31, 10.19 15.93 C3.61 14.54, -0.44 13.99, -0.73 12.26 C-1.03 10.53, 2.86 7.33, 8.41 5.53 C13.96 3.74, 21.13 2.55, 32.57 1.5 C44 0.46, 68.41 -0.52, 77 -0.72 C85.59 -0.93, 84 0.08, 84.12 0.27 M70.93 0.23 C82.54 -0.56, 97.19 -1.34, 109.42 -0.54 C121.64 0.25, 135.16 3.61, 144.27 4.98 C153.38 6.36, 160.98 6.05, 164.07 7.71 C167.17 9.36, 165.94 13.15, 162.82 14.91 C159.71 16.67, 153.77 17.35, 145.37 18.26 C136.97 19.18, 124.47 19.95, 112.42 20.42 C100.36 20.88, 85.61 21.23, 73.03 21.06 C60.44 20.88, 47.28 19.89, 36.9 19.35 C26.52 18.8, 17.01 18.94, 10.75 17.78 C4.48 16.62, -0.3 14.46, -0.69 12.38 C-1.09 10.29, 2.39 7.21, 8.38 5.27 C14.37 3.32, 24.88 1.65, 35.25 0.72 C45.62 -0.21, 64.37 -0.45, 70.6 -0.32 C76.83 -0.19, 72.54 1.29, 72.63 1.5" stroke="none" stroke-width="0" fill="#e64980"></path><path d="M60.35 0.77 C71.66 0, 87.2 -0.65, 99.64 -0.26 C112.08 0.14, 125.21 1.9, 134.99 3.16 C144.77 4.42, 153.19 5.98, 158.32 7.31 C163.44 8.64, 166.9 9.62, 165.76 11.15 C164.63 12.69, 158.53 14.82, 151.51 16.52 C144.48 18.22, 134.55 20.46, 123.6 21.36 C112.66 22.27, 98.48 21.84, 85.83 21.97 C73.19 22.1, 59.19 22.93, 47.74 22.14 C36.29 21.35, 24.83 18.75, 17.14 17.24 C9.46 15.74, 3.9 14.67, 1.63 13.1 C-0.64 11.52, -0.63 9.58, 3.52 7.79 C7.68 5.99, 16.13 3.6, 26.56 2.35 C36.99 1.1, 58.51 0.8, 66.09 0.31 C73.68 -0.18, 71.8 -0.87, 72.08 -0.62 M96.89 0.47 C109.35 0.76, 124.36 2.06, 134.35 3.24 C144.33 4.43, 151.81 6.02, 156.77 7.59 C161.74 9.15, 164.38 11, 164.11 12.62 C163.84 14.24, 161.44 15.83, 155.15 17.3 C148.86 18.77, 137.34 20.6, 126.35 21.45 C115.37 22.3, 102.07 22.32, 89.22 22.39 C76.37 22.46, 60.97 22.36, 49.27 21.88 C37.56 21.4, 26.81 20.92, 18.98 19.53 C11.14 18.14, 4.63 15.32, 2.24 13.53 C-0.16 11.74, 0.83 10.63, 4.63 8.79 C8.42 6.94, 16.02 3.76, 25.02 2.46 C34.03 1.16, 46.72 1.46, 58.66 0.99 C70.6 0.51, 90.23 -0.32, 96.67 -0.38 C103.1 -0.43, 97.62 0.48, 97.29 0.66" stroke="#000000" stroke-width="1" fill="none"></path></g><g stroke-linecap="round" transform="translate(738.8386555557643 373.2200796404477) rotate(0 82.79939342167336 11.14912868159675)"><path d="M101.35 0.71 C113.34 0.78, 126.58 1.22, 136.28 2.28 C145.97 3.35, 154.66 5.33, 159.53 7.11 C164.4 8.89, 166.66 11.39, 165.5 12.96 C164.33 14.53, 159.58 15.15, 152.57 16.54 C145.56 17.92, 134.98 20.34, 123.46 21.26 C111.93 22.19, 96.54 22.1, 83.41 22.09 C70.29 22.08, 56.01 22.12, 44.7 21.22 C33.38 20.32, 22.97 18.25, 15.52 16.7 C8.07 15.14, 1.66 13.37, -0.01 11.89 C-1.68 10.42, 1.18 9.4, 5.5 7.84 C9.83 6.28, 16.71 3.64, 25.92 2.52 C35.13 1.4, 47.39 1.28, 60.78 1.09 C74.17 0.91, 97.7 1.32, 106.28 1.43 C114.85 1.54, 112.64 1.77, 112.25 1.74 M92.75 -1.31 C104.59 -1.12, 117.73 1.01, 128.51 2.43 C139.29 3.84, 151.33 5.86, 157.41 7.19 C163.5 8.52, 165.01 8.96, 165.02 10.42 C165.03 11.89, 163.33 14.49, 157.47 15.96 C151.61 17.42, 140.77 18.38, 129.83 19.22 C118.89 20.06, 104.75 20.6, 91.85 20.98 C78.94 21.37, 64.4 21.83, 52.4 21.52 C40.4 21.21, 27.95 20.53, 19.84 19.14 C11.73 17.74, 6.46 14.98, 3.72 13.13 C0.98 11.29, 0.72 9.51, 3.4 8.06 C6.09 6.61, 11.76 5.79, 19.85 4.44 C27.93 3.09, 39.87 0.5, 51.93 -0.05 C63.99 -0.61, 85.25 1.27, 92.2 1.09 C99.14 0.92, 93.74 -1.31, 93.6 -1.12" stroke="none" stroke-width="0" fill="#e64980"></path><path d="M91.64 -0.28 C103.72 -0.38, 117.36 0.34, 128.09 1.21 C138.82 2.07, 149.67 3.19, 156 4.89 C162.32 6.59, 166.07 9.71, 166.04 11.43 C166.01 13.15, 161.77 13.76, 155.83 15.21 C149.89 16.66, 140.58 18.93, 130.41 20.15 C120.24 21.37, 107.44 22.1, 94.79 22.51 C82.14 22.93, 66.53 23.13, 54.53 22.64 C42.53 22.16, 31.5 20.93, 22.79 19.6 C14.07 18.27, 5.66 16.65, 2.24 14.67 C-1.17 12.7, -0.67 9.42, 2.3 7.74 C5.27 6.06, 11.91 5.68, 20.08 4.57 C28.25 3.46, 38.76 1.73, 51.33 1.07 C63.9 0.41, 87.68 0.68, 95.51 0.62 C103.33 0.56, 98.41 0.54, 98.27 0.71 M61.1 1.13 C72.67 0.39, 88.65 -1.17, 101.31 -1.15 C113.97 -1.13, 127.22 -0.31, 137.04 1.25 C146.87 2.82, 155.46 6.35, 160.23 8.25 C165 10.15, 166.86 10.96, 165.65 12.65 C164.44 14.33, 160.03 16.95, 152.98 18.35 C145.93 19.75, 134.61 20.19, 123.38 21.04 C112.15 21.9, 98.2 23.3, 85.61 23.46 C73.01 23.62, 59.36 22.78, 47.81 21.98 C36.25 21.19, 23.96 20.06, 16.29 18.7 C8.63 17.33, 3.91 15.52, 1.82 13.78 C-0.27 12.04, -0.37 10.19, 3.77 8.27 C7.92 6.35, 17.28 3.54, 26.69 2.25 C36.1 0.97, 54.44 1.05, 60.25 0.56 C66.05 0.07, 61.14 -0.73, 61.5 -0.68" stroke="#000000" stroke-width="1" fill="none"></path></g><g transform="translate(741.5327322380961 274.9476432544393) rotate(0 78.5 32)"><text x="78.5" y="23" font-family="Virgil, Segoe UI Emoji" font-size="25.38722626563834px" fill="#000000" text-anchor="middle" style="white-space: pre;" direction="ltr">SQL</text><text x="78.5" y="55" font-family="Virgil, Segoe UI Emoji" font-size="25.38722626563834px" fill="#000000" text-anchor="middle" style="white-space: pre;" direction="ltr">DB</text></g><g stroke-linecap="round" transform="translate(308.23062600684534 265.1208314377776) rotate(0 82.88067846323952 37.444202481247686)"><path d="M0 0 C0 0, 0 0, 0 0 M0 0 C0 0, 0 0, 0 0 M-1 5.76 C2 4.83, 4.41 1.49, 4.61 1.05 M-0.55 6.07 C0.88 4.75, 2.35 3.25, 5.33 0.17 M0.85 10.58 C3.2 7.19, 9 4.44, 9.12 -0.37 M0.08 12.48 C4.79 7.69, 7.67 3.68, 11.16 0.3 M0.06 18.55 C7.21 13.04, 12.82 6.91, 13.84 -0.41 M0.45 18.27 C4.55 13.25, 10.13 7, 15.14 0.96 M2.14 25.74 C9.61 13.51, 17.22 4.91, 23.15 0.48 M-0.02 23.35 C8.03 13.81, 17.45 5.19, 21.79 -1.02 M2 30.28 C7.02 22.51, 17.57 12.27, 24.91 -0.71 M0.76 30.5 C5.11 23.66, 12.72 15.68, 27.02 0.2 M-1.13 36.69 C9.2 26.82, 18.17 12.92, 31.31 0.49 M-0.85 37.21 C9.58 25.81, 19.93 13.72, 31.62 -0.2 M0.84 44.38 C8.45 30.99, 14.63 24.28, 37.56 -1.31 M0.13 43.22 C11.67 30.08, 22.51 17.99, 37.48 0.65 M-0.82 50.69 C14.14 33.19, 30.34 15.07, 41.49 -0.69 M0.7 48.9 C10.95 36.47, 22.2 22.83, 43.16 0.38 M-0.74 56.22 C19.6 34.51, 36.23 11.8, 46.58 1.27 M0.78 55.16 C15.25 39.2, 28.86 21.65, 48.02 -0.4 M-0.4 59.6 C14.32 41.86, 32.79 27.15, 53.53 1.66 M-0.7 61.64 C13.71 45.62, 26.86 29.66, 53.78 -0.98 M-1.2 66.89 C10.11 52.19, 21.54 38.98, 59.33 -1.53 M-0.79 66.57 C14.43 52.21, 28.85 36.45, 58.62 -0.38 M1.86 74.5 C15.35 51.94, 34.04 35.45, 64.79 -0.78 M0.74 73.19 C19.97 48.98, 39.82 26.17, 62.82 -0.2 M2.48 75.92 C24.39 48.89, 51.39 19.84, 69.67 -0.3 M1.86 76.92 C24.01 50.79, 46.74 25.2, 68.76 -0.47 M9.4 76.12 C31.21 47.53, 55.69 18.3, 76.16 0.63 M7.51 77.26 C22.11 59.75, 37.72 42.32, 74.61 -0.46 M11.47 76.8 C33.74 54.83, 49.44 32.54, 80.01 -1.64 M12.8 77.46 C29.19 59.77, 43.01 41.91, 80.37 -0.57 M19.09 78 C32.99 56.59, 48.29 38.68, 86.05 1.53 M17.44 77.65 C43.8 47.16, 70.16 18.03, 85.47 -1.15 M22.02 78.58 C38.86 59.17, 56.02 42.37, 91.29 1.79 M23.61 77.77 C36.08 61.19, 50.92 44.77, 90.89 -0.33 M26.94 74.89 C42.24 58.57, 60.84 43.2, 96.43 -1.51 M28.49 75.7 C50.27 51.42, 72.93 26.15, 94.71 -0.9 M34.48 77.47 C50.29 61.96, 61.75 43.92, 100.97 1.33 M33.41 76.42 C57.55 50.22, 82.01 24.13, 100.25 -0.12 M40.8 77.74 C58.5 56.74, 76.86 34.86, 106.76 -0.93 M38.4 76.2 C64.36 46.8, 90.25 18.66, 105.61 -0.58 M42.69 76.66 C65.39 53.53, 86.32 31.31, 113.05 -1.76 M45.31 77.72 C58.62 62.03, 73.44 44.17, 111.84 -0.05 M51.05 75.46 C67.65 56.02, 84.95 35.63, 115.41 0.55 M50.38 76.24 C66.42 57.47, 83.13 38.99, 115.78 0.45 M56.04 76.29 C75.02 54.87, 97.03 29.7, 120.06 1.81 M55.37 76.76 C77.41 52.07, 97.31 27.64, 121.55 -0.97 M60.59 76.94 C84.46 47.16, 113.97 14.88, 128.24 0.91 M60.13 76.16 C75.19 61.1, 87.86 44.73, 126.8 0.36 M65.46 75.49 C83.75 56.5, 102.58 35.64, 133.07 -0.75 M65.68 76.39 C85.11 55.29, 103.51 35.4, 132.75 0.55 M70.85 77.03 C88.97 55.4, 108.68 35.94, 136.66 1.38 M70.84 76.57 C92.3 51, 113.26 28.39, 137.24 0.33 M77.4 78.34 C92.57 58.89, 107.61 40.61, 143.66 1.76 M75.28 76.22 C93.51 55, 111.63 35.77, 143.3 -0.81 M83.8 74.55 C107.89 47.92, 135.16 16.41, 146.29 1.38 M82.17 77.34 C96.84 58.26, 111.58 41.91, 148.32 0.55 M87.84 75.89 C105.26 59.41, 117.78 42.26, 153.96 -1.5 M87.21 77.64 C111.69 49.13, 134.74 22.7, 154.55 -0.1 M91.95 78.3 C105.74 56.26, 121.99 39.58, 158.27 1.32 M93.27 76.62 C112.81 52.5, 134.64 29.89, 158.26 -0.02 M96.29 76.18 C117.41 53.39, 134.15 33.16, 162.62 -1.38 M97.48 76.79 C122.21 50.21, 144.98 21.44, 164.31 -1.09 M104.31 77.03 C117.82 63.71, 130.74 45.33, 169.95 2.06 M103.8 75.8 C128.67 47.23, 154.7 18.63, 167.93 0.86 M107.8 78.19 C121.01 58.51, 137.28 42.85, 167.62 9.52 M108.11 77.59 C119.3 61.71, 132.23 47.55, 168.68 8.99 M112.46 77.47 C131.56 58.97, 145.16 41.27, 167.66 13.01 M112.85 76.56 C135.37 51.37, 156.77 26.72, 168.65 13.74 M118.95 77.89 C132.69 58.8, 148.4 43.54, 166.6 21.73 M118.08 76.72 C137.79 55.68, 157.32 33.12, 167.38 19.37 M123.82 79.08 C140.7 57.66, 159.16 38.59, 167.66 27.66 M123.4 76.6 C136.87 62.84, 150.15 46.83, 168.09 26.06 M127.84 78.21 C141.18 64.19, 154.11 51.19, 167.1 32.53 M130.36 76.63 C138.7 66.09, 149.7 55.4, 168.99 32.29 M134.34 77 C148.7 62.5, 157.82 49.71, 166.54 36.78 M133.84 77.6 C147.07 62.53, 160.17 47.05, 167.71 38.33 M140.12 75.05 C146.7 69.84, 157.09 61.1, 169.89 42.93 M140.92 76.51 C148.87 65.48, 159.79 54.2, 169.25 45.03 M146.51 76.63 C150.38 72.53, 155.53 64.39, 168.42 52.36 M145.08 76.78 C153.63 66.61, 163.08 57.49, 167 51.1 M150.95 75.27 C153.04 72.98, 159.24 66.8, 169.63 56.66 M149.69 77.35 C155.68 69.87, 161.79 65.52, 166.76 57.9 M154.1 76.59 C161.39 69.86, 164.16 66, 169.56 62.61 M156.16 76.89 C159.53 73.48, 162.89 67.66, 169.01 62.91 M162.17 75.67 C163.14 75.47, 163.65 73.75, 167.67 68.11 M161.45 76.75 C162.83 74.08, 165.14 71.77, 168.21 68.63" stroke="#7950f2" stroke-width="0.5" fill="none"></path><path d="M0.99 -0.02 C44.03 -1.01, 85.64 -1.65, 166.95 -1.8 M-0.94 -0.66 C57.21 2.13, 114.86 1.29, 166.76 0.95 M166.25 -1.88 C165.85 30.59, 163.96 59.06, 165.91 75.87 M166.12 -0.54 C165.92 15.04, 166.15 31.27, 166.36 73.95 M167.54 75.44 C105.04 76.86, 44.58 75.97, 0.22 75.62 M165.98 75.53 C103.76 76.46, 39.99 76.32, 0.31 74.38 M-1.72 74.11 C-0.88 55.23, -0.73 36.37, 1.44 0.81 M-0.39 74.75 C-0.22 51.17, 0.35 27.57, -0.78 0.84" stroke="#000000" stroke-width="1" fill="none"></path></g><g transform="translate(349.97528965488345 280.66136539688193) rotate(0 33.63807480197079 22.213822982433527)"><text x="33.638074801970795" y="31.427645964867047" font-family="Virgil, Segoe UI Emoji" font-size="35.54211677189367px" fill="#000000" text-anchor="middle" style="white-space: pre;" direction="ltr">API</text></g><g stroke-linecap="round" transform="translate(12.37648858176317 254.49805569952315) rotate(0 60.42201300703283 66.45660232354241)"><path d="M0 0 C0 0, 0 0, 0 0 M0 0 C0 0, 0 0, 0 0 M-0.01 7.13 C2.07 4.27, 2.65 3.41, 4.8 0.29 M-0.58 6.38 C0.68 5.22, 2.51 3.51, 5.26 0.24 M-0.71 11.58 C3.7 10.47, 3.64 5.97, 11.77 -0.35 M0.87 12.15 C2.81 9.16, 6.57 5.53, 11.19 -0.64 M1.25 19.78 C6.14 14.45, 8.3 5.92, 16.3 -0.02 M-0.75 19.16 C2.75 15.22, 5.87 11.53, 16.52 0.27 M1.41 23.01 C7.8 15.38, 16.31 7.92, 22.93 -1.78 M-0.23 23.2 C8.79 15.28, 16.02 5.85, 21.34 -1.02 M-1.36 31.69 C7.49 23.09, 11.73 14.14, 24.95 1.9 M-0.81 30.58 C6.53 22.64, 12.81 16.28, 26.34 0.89 M-0.52 38.36 C9.27 23.72, 20.54 13.09, 32.26 0.11 M-0.63 37.87 C12.04 23.27, 24.37 8.29, 31.09 -0.48 M0.22 40.57 C12.22 26.66, 28.74 8.33, 36.77 0.15 M0.82 42.34 C9.85 32.08, 18.76 21.93, 37.27 -0.51 M-0.7 49.83 C14.04 33.21, 24.69 18.46, 41.89 -1.82 M-0.9 49.4 C8.89 36.97, 20.92 25.51, 43.3 0.67 M2.19 54.99 C14.97 36.63, 27.05 23.66, 47.63 -0.08 M0.7 55.44 C9.68 42.62, 20.71 30.42, 47.4 -0.62 M-1.54 58.99 C12.34 50.07, 21.79 38.68, 52.18 -0.67 M0.2 61.05 C17.02 40.99, 34.27 21.59, 52.19 0.5 M-1.34 66.25 C19.6 42.59, 43.47 17.21, 56.92 -0.66 M0.18 67.9 C14.8 52.79, 28.19 35.51, 57.81 0.65 M-1.29 71.61 C20.23 50.67, 41.4 24.94, 64.04 -1.53 M-0.42 72.11 C20.52 47.42, 41.61 23.56, 64.46 0.35 M-1.79 79.33 C19.29 57.22, 38.49 35.7, 69.55 -0.45 M-0.9 78.74 C15.38 60.72, 32.37 41.53, 69.57 1.15 M-0.65 84.44 C12.84 67.14, 31.69 51.08, 72.9 0.43 M0.12 85.61 C26 55.98, 51.07 26.21, 74.3 -0.18 M1.99 91.49 C23.5 63.16, 50.45 33.02, 77.99 -1.37 M0.8 91.52 C19.84 67.04, 42.4 42.49, 78.73 -0.5 M-1.44 95.94 C27.15 61.66, 58.97 31.59, 86.74 -1.95 M-0.98 98.11 C28.15 65.75, 56.58 32.05, 84.37 -0.2 M0.36 103.15 C24.49 78.3, 45.97 53.89, 88.2 1.64 M-0.24 104.29 C35.45 62.64, 71.15 21.15, 89.32 0.07 M-2.01 109.29 C28.58 82.14, 54.33 48.92, 96.05 -1.89 M-0.56 109.66 C36.49 69.11, 70.11 28.67, 94.83 -0.57 M2.19 116.75 C24.14 85.93, 50.88 58.23, 101.71 -1.4 M-0.07 115.38 C24.28 90.48, 46.44 62.82, 100.38 0.02 M0.9 122.88 C30.57 86.4, 60.39 50.83, 107.87 -0.64 M-0.43 121.37 C35.93 83.03, 69.69 42.59, 106.31 -0.9 M0.21 127.41 C25.3 101.83, 49.06 73.29, 109.56 -1.5 M-0.87 129.15 C21.14 100.82, 44.48 75.25, 110.9 0.26 M1.34 132.59 C36.72 91.27, 71.37 51.08, 115.09 -0.69 M0.87 132.56 C38.44 89.94, 74.4 47.91, 116.28 0.25 M5.6 135.19 C51.14 82.54, 91.95 33.73, 121.67 0.06 M6.5 133.14 C35.53 97.86, 67.09 61.34, 122.21 1.22 M9.47 133.43 C39.11 100.84, 65.29 73.16, 119.87 7.16 M12.33 133.55 C41.43 99.49, 71.44 65.24, 121.41 7.34 M16.83 134.67 C54.14 93.43, 90.72 48.84, 120.97 10.78 M16.48 132.74 C38.23 109.5, 60.68 83.95, 121.1 12.91 M21.91 133.29 C63.14 89.11, 99.89 43.72, 121.53 19.1 M21.89 132.29 C56.78 94.19, 91.48 53.5, 120.48 20.08 M28.33 133.43 C53.27 102.37, 79.42 74.26, 120.93 25.24 M26.39 132.64 C59.2 98.37, 91.65 60.47, 122.38 24.22 M32.69 133.68 C57.09 105.23, 77.11 80.72, 119.77 30.2 M32.33 132.18 C60.38 99.46, 89.59 67.06, 120.63 30.39 M39.62 133.73 C55.42 112.69, 76.45 87.55, 122.73 36.3 M38.62 133.47 C69.75 96.75, 102.18 59.14, 120.98 37.14 M41.35 131.1 C72.13 97.3, 102.37 65.2, 121.64 41.84 M42.4 132.37 C60.36 113.32, 77.07 92.5, 121.25 42.76 M48.76 131.8 C67.44 110.16, 87.98 85.31, 122.41 50.56 M49.04 134.18 C62.82 115.81, 78.8 97.33, 120.18 49.15 M54.31 135.77 C68.05 115.72, 83.76 100.49, 123.34 54.58 M53.18 133.55 C71.67 113.48, 89.26 91.23, 120.89 56.2 M58.35 131.83 C84.89 104.07, 107.25 78.67, 119.51 63.32 M58.01 132.93 C77.66 110.56, 98.49 89.26, 121.2 61.25 M65.49 134.61 C80.51 115.48, 97.57 93.84, 123.63 66.96 M63.71 133.92 C84 111.16, 104.86 87.74, 121.58 67.96 M69.5 131.98 C87.24 114.02, 100.99 96.86, 123.15 73.1 M69.36 134.19 C85.71 115.78, 100.29 97.05, 122.27 73.47 M74.38 133.77 C89.5 118.06, 101.8 102.95, 121.13 78.24 M74.04 134.67 C89.34 116.79, 105.08 99.01, 121.17 79.32 M79.88 134.4 C95.02 118.99, 106.69 102.15, 120.61 84.65 M79.42 133.67 C89.04 124.08, 98.41 113, 122.28 84.85 M86.64 133.62 C95.45 121.21, 108.27 103.83, 122.96 91.4 M84.86 134.04 C97.59 119.08, 109.76 105.07, 120.98 91.59 M89.67 135.18 C101.1 125.48, 109.86 112.22, 122.74 99.69 M90 133.35 C97.76 125.41, 105.73 117.8, 121.09 97.19 M95.47 135.51 C102.49 125.01, 111.3 117.86, 122.81 103.63 M95.85 133.02 C104.94 124.38, 111.09 115.46, 120.83 103.57 M99.58 134.4 C108.25 125.48, 116.6 117.76, 121.22 111.64 M101.4 132.49 C109.23 126.28, 114.06 118.63, 121.89 110.82 M107.61 131.73 C110.21 128.23, 117 123.36, 121.55 117.35 M106.68 134.37 C110.01 128.39, 114.96 125.06, 120.69 115.59 M112.63 133.83 C113.57 131.14, 116.32 126.69, 121.26 124.05 M111.6 132.79 C114.47 129.91, 117.38 127.02, 120.96 122.59 M117.17 134.27 C118.4 132.16, 120.62 129.45, 121.29 127.83 M117.39 133.59 C118.84 131.63, 120.26 129.95, 121.44 128.63" stroke="#82c91e" stroke-width="0.5" fill="none"></path><path d="M0.71 -0.67 C37.74 -1.3, 78.66 -1.79, 121.75 0.97 M-0.06 0.52 C24.79 0.47, 49.94 1.75, 121.75 -0.54 M121.34 1.33 C119.77 49.16, 121.31 98.22, 118.96 133.43 M120.81 -0.36 C121.51 47.17, 121.91 92.43, 121.54 132.01 M121.45 133.95 C79.3 133.4, 35 133.98, 1.55 134.87 M121.45 133.57 C77.4 134.22, 35.38 133.19, -0.37 133.02 M-0.8 132.96 C0.5 91.59, 2.59 49.29, 0.42 0.87 M0.1 133.24 C1.19 97.61, -0.26 61.59, 0.34 -0.9" stroke="#000000" stroke-width="1" fill="none"></path></g><g transform="translate(17.37648858176317 297.9546580230656) rotate(0 55.42201300703283 23.000000000000014)"><text x="55.42201300703283" y="32" font-family="Virgil, Segoe UI Emoji" font-size="36.513326216398085px" fill="#000000" text-anchor="middle" style="white-space: pre;" direction="ltr">App2</text></g><g stroke-linecap="round" transform="translate(11.751802286048814 524.5432861773353) rotate(0 60.42201300703283 66.45660232354243)"><path d="M0 0 C0 0, 0 0, 0 0 M0 0 C0 0, 0 0, 0 0 M0.4 6.09 C0.5 5.71, 1.84 3.62, 4.4 -0.22 M-0.55 6.55 C1.27 4.9, 2.35 3.65, 4.75 0.54 M1.22 13.29 C0.88 9.21, 5.72 6.7, 10.33 -0.14 M-0.15 12.62 C4.28 8.07, 8.04 2.85, 10.83 0.04 M1.04 20.34 C2.78 12.06, 10.06 6.91, 13.79 1.49 M-0.43 18.97 C3.97 13.82, 9.8 8, 16.04 1.26 M0.84 23.82 C10.06 15.5, 17.87 4, 22.48 -0.64 M1.14 23.85 C5.68 17.84, 9.98 12.36, 20.81 0.93 M1.11 30.74 C6.49 20.56, 14.14 14.41, 24.92 1.79 M0.62 29.69 C8.95 21.25, 16.19 12.82, 26.55 -0.15 M-1.5 35.9 C8.54 26.49, 18.84 15.38, 33.57 -1.3 M-0.52 37.57 C10.34 24.12, 20.53 11.5, 32.71 0.25 M-1.66 43.14 C15.24 24.7, 28.89 9.55, 35.78 0.25 M0.83 42.7 C14.04 27.34, 27.43 10.55, 36.89 -0.09 M1.04 48.35 C15.55 29.12, 32.52 8.93, 41.4 1.52 M-1.11 48.92 C13.61 34.61, 26.46 20.28, 42.42 -0.64 M0.98 52.81 C16.91 34.7, 36.04 12.55, 45.78 1.23 M-0.15 54.52 C17.56 33.97, 33.94 14.18, 46.51 0.02 M1.57 61.94 C13.2 49.13, 24.18 32.61, 53.4 -1.58 M-0.01 60.45 C20.09 37.6, 38.06 16.57, 53.77 -0.65 M-1.82 66.73 C17.45 47.39, 31.18 29.7, 56.86 -0.9 M0.64 68.2 C12.85 51.62, 24.95 37.8, 58.35 1.04 M0.42 74.66 C25.54 45.42, 48.64 17.23, 64.52 0.99 M-0.48 72.2 C19.88 50.22, 41.82 27.43, 63.54 0.11 M0.57 78.63 C17.93 60.01, 34.29 40.9, 67.49 0.18 M-0.87 79.27 C19.71 57.12, 39.74 36.63, 67.82 1.11 M-1.58 84.44 C22.36 63.21, 39.03 40.07, 75.24 -0.2 M0.71 85.48 C26.68 54.4, 52.45 24.69, 74.52 -0.75 M-1.64 91.43 C22.34 63.64, 42.94 37.9, 78.65 0.75 M-0.73 91.32 C26.94 60, 51.97 29.39, 79.84 0.6 M-1.72 95.96 C32.45 64.68, 64.23 25.43, 85.57 -1.64 M-0.39 98.61 C34.57 58, 67.14 20.22, 84.49 -0.82 M1.93 104.29 C35.06 66.5, 65.74 27.5, 91.89 1.08 M0.64 103.92 C34.75 63.99, 66.52 26.04, 89.78 -0.82 M1.23 111.59 C21.88 85.73, 41.7 62.11, 97.07 -0.83 M0.75 108.95 C18.82 87.17, 38.34 65.18, 95.2 0.06 M-0.79 115.32 C31.82 78.99, 64.89 39.07, 99.26 -0.61 M0.8 116.44 C24.27 87.88, 48.4 60.41, 100.52 0.76 M1.05 121.95 C37.67 77.41, 76.51 34.31, 106.81 -2.31 M0.15 122.34 C27.13 90.92, 55.07 59.26, 105.38 -1.19 M0.99 128.36 C32.82 90.71, 60.92 54.62, 109.36 1.89 M-0.35 127.73 C42.66 79.52, 83.28 32.02, 111.41 0.53 M1.35 132.09 C27.63 101.47, 55.35 67.98, 116.73 1.11 M1.64 132.41 C30.71 98.97, 61.67 63.72, 117.12 0.9 M7.48 133.18 C34.86 99.04, 67.92 61.11, 120.65 1.48 M4.95 133.38 C36.81 95.94, 70.44 60.19, 120.64 0.71 M12.83 131.24 C49.14 93.2, 81.13 53.01, 121.05 5.35 M11.05 133.24 C38.79 99.88, 67.24 67.94, 122.17 6.29 M17.21 135.05 C40.66 104.67, 63.67 75.82, 119.6 12.88 M16.24 134.31 C42.38 105.25, 67.71 75.08, 122.35 12.56 M23.67 134.48 C53.47 97.11, 86.92 58.93, 122.12 18.3 M21.67 134.04 C52.06 99.38, 81.8 65.64, 120.91 19.74 M27.64 133.25 C62.02 94.9, 96.11 53.01, 122.24 22.86 M26.44 134.2 C49.88 108.3, 72.59 83.15, 121.2 25.77 M34.43 131.55 C48.8 113.29, 67.14 90.5, 121.7 31.74 M32.14 133 C67.28 95.03, 100.53 54.76, 120.59 31.69 M36.35 134.76 C58.05 107.65, 80.11 84.14, 123.29 37.49 M38.03 134.25 C69.26 96.95, 99.59 60.69, 122.46 36.56 M42.21 132.13 C74.29 99.71, 105.65 62.02, 119.88 44.74 M43.56 133.54 C68.25 105.03, 93.26 76.47, 121.21 42.64 M46.44 133.49 C65.82 110.36, 88.41 90.05, 119.34 49.58 M47.49 133.38 C69.2 107.07, 89.99 82.63, 120.27 50.23 M53.97 132.65 C77.27 107.54, 99.77 80.56, 120.9 56.56 M53.86 134.12 C69.4 114.48, 85.12 97.61, 122.42 55.12 M60.56 132.35 C82 108.75, 103.54 82.42, 121.48 61.61 M58.28 133.32 C84.16 107.27, 106.99 78.66, 121.2 61.03 M63.17 135.23 C83.26 109.26, 106.25 86.11, 122.58 65.46 M63.42 134.21 C82.78 112.59, 100.59 92.17, 121.84 67.42 M70.87 133.21 C86.71 114.02, 108.33 90.52, 121.37 72.33 M69.84 133.53 C84.5 114.44, 101.36 97.24, 121.34 73.76 M75.86 134.23 C93.09 113.49, 111.68 89.15, 121.57 79.4 M74.16 133.78 C86.77 119.47, 98.01 105.85, 121.43 79.35 M81.08 134.9 C94.74 115.63, 110.32 96.36, 119.84 87.68 M80.6 134.27 C93.46 119.46, 105.34 104.61, 121.92 85.75 M83.24 135.22 C94.25 119.6, 107.93 108.35, 122.06 91.05 M85.12 133.35 C97.87 118.7, 110.41 103.78, 121.1 92.21 M92.42 135.23 C99.41 123.95, 105.56 119.39, 120.28 99.58 M90.97 133.53 C100.84 124.05, 107.97 112.6, 121.66 98.56 M95.07 133.74 C103.44 126.92, 111.55 116.4, 121.77 104.32 M96.82 133.67 C101.82 126.22, 109.24 117.06, 121.78 104.35 M101.65 132.98 C108.13 127.53, 110.85 123.69, 121.93 108.66 M102.33 134.09 C107.8 125.89, 116.79 116.85, 121.09 109.79 M105.62 133.31 C112.05 128.88, 114.74 125.22, 120.62 117.32 M106.27 132.78 C111.69 128.76, 114.24 122.85, 121.04 117.12 M111.37 133.69 C113.67 129.66, 115.81 130.23, 120.76 123.08 M112.08 132.71 C115.67 129.2, 117.87 126.29, 121.95 122.93 M116.6 134.21 C118.02 132.37, 118.72 130.74, 121.81 128.59 M117.4 133.36 C119.1 131.29, 120.41 129.75, 121.59 128.42" stroke="#12b886" stroke-width="0.5" fill="none"></path><path d="M-1 -1.31 C37.33 -1.39, 73.19 1.37, 118.89 -1.88 M0.32 -0.33 C29.33 0.33, 57.57 -1.16, 121.5 0.24 M119.44 0.54 C121.32 28.39, 119.28 55.32, 121.87 133.62 M121.04 0.48 C121.4 31.79, 121.5 64.55, 121.41 133.8 M122.33 133.06 C81.47 134.27, 43.21 135.5, 1.1 133.35 M120.29 133.44 C77.11 133.2, 32.38 133.81, 0.18 132.05 M-0.65 133.81 C1.98 99.01, 0.96 64.36, -0.57 -0.77 M0.67 133.69 C-0.91 95.66, 0.2 55.82, -0.21 -0.97" stroke="#000000" stroke-width="1" fill="none"></path></g><g transform="translate(16.751802286048814 544.9998885008778) rotate(0 55.42201300703283 46)"><text x="55.42201300703283" y="32" font-family="Virgil, Segoe UI Emoji" font-size="36.513326216398085px" fill="#000000" text-anchor="middle" style="white-space: pre;" direction="ltr">End </text><text x="55.42201300703283" y="78" font-family="Virgil, Segoe UI Emoji" font-size="36.513326216398085px" fill="#000000" text-anchor="middle" style="white-space: pre;" direction="ltr">User</text></g><g stroke-linecap="round"><g transform="translate(135.42481018062927 570.8832025561051) rotate(0 85.02140678523227 -114.22998359678982)"><path d="M-0.79 0.71 C27.4 -37.08, 140.16 -189.04, 168.68 -227.34 M1 0.04 C29.58 -38.05, 142.68 -191.11, 170.83 -229.17" stroke="#000000" stroke-width="1" fill="none"></path></g><g transform="translate(135.42481018062927 570.8832025561051) rotate(0 85.02140678523227 -114.22998359678982)"><path d="M168.92 -230.79 L166.24 -213.18 L158.56 -223.7 L169.99 -230.65" stroke="none" stroke-width="0" fill="#000000" fill-rule="evenodd"></path><path d="M171.72 -230.52 C170.64 -224.55, 167.7 -222.77, 166.86 -214.56 M171.58 -228.46 C170.51 -224.42, 169.27 -218.66, 167.14 -214.29 M167.94 -213.85 C162.96 -216.88, 161.08 -219.52, 156.97 -222.05 M168.22 -215.07 C165.58 -216.99, 162.79 -217.85, 157.82 -221.82 M157.82 -221.46 C163.4 -223.07, 167.7 -226.74, 171.8 -228.26 M157.88 -222.39 C162.23 -224.62, 167.46 -227.97, 170.54 -229.48 M170.83 -229.17 C170.83 -229.17, 170.83 -229.17, 170.83 -229.17 M170.83 -229.17 C170.83 -229.17, 170.83 -229.17, 170.83 -229.17" stroke="#000000" stroke-width="1" fill="none"></path></g></g><g stroke-linecap="round"><g transform="translate(134.82132907019604 303.50938109671597) rotate(0 85.66932702404216 0.1288493861349167)"><path d="M0.71 -1.08 C29.43 -0.73, 143.5 1.22, 171.71 1.34 M-0.37 0.97 C28.29 1.04, 142.27 -0.38, 171.05 -0.48" stroke="#000000" stroke-width="1" fill="none"></path></g><g transform="translate(134.82132907019604 303.50938109671597) rotate(0 85.66932702404216 0.1288493861349167)"><path d="M169.44 -2.09 L158.8 6.88 L155.71 -7.55 L169.57 0.96" stroke="none" stroke-width="0" fill="#000000" fill-rule="evenodd"></path><path d="M169.7 0.2 C168.34 -0.25, 162.82 1.84, 157.42 6.75 M171.76 0.2 C166.12 2.29, 162.21 3.24, 157.69 6.47 M158.13 4.77 C157.77 3.71, 157.87 -0.54, 157.36 -7.16 M156.91 6.42 C156.84 2.27, 157.94 -1.96, 157.59 -6.38 M157.95 -5.54 C163.99 -3.57, 167.95 -1.09, 171.96 0.51 M157.02 -6.98 C160.85 -5.1, 163.46 -4, 170.75 -0.46 M171.05 -0.48 C171.05 -0.48, 171.05 -0.48, 171.05 -0.48 M171.05 -0.48 C171.05 -0.48, 171.05 -0.48, 171.05 -0.48" stroke="#000000" stroke-width="1" fill="none"></path></g></g><g stroke-linecap="round"><g transform="translate(477.4589634371423 306.50536134596825) rotate(0 127.83095483339821 -1.9211619737333052)"><path d="M-1.08 0.55 C41.84 -0.3, 214.06 -3.63, 256.74 -4.39 M0.56 -0.21 C43.44 -1.02, 213.3 -2.98, 256.1 -3.47" stroke="#000000" stroke-width="1" fill="none"></path></g><g transform="translate(477.4589634371423 306.50536134596825) rotate(0 127.83095483339821 -1.9211619737333052)"><path d="M-2.68 1.84 L13.3 -7.75 L11.79 5.15 L0.36 -0.97" stroke="none" stroke-width="0" fill="#000000" fill-rule="evenodd"></path><path d="M-0.4 1.27 C0.58 -2.29, 4.22 -2.51, 13.16 -5.57 M-0.4 0.14 C2.95 -1.17, 5.36 -2.93, 12.89 -6.58 M11.19 -5.73 C13.13 -1.46, 11.88 2.2, 12.18 6.87 M12.83 -6.63 C12.91 -1.07, 12.81 2.97, 12.97 7.09 M13.8 8.09 C9.23 5.13, 5.16 3.85, -0.09 -0.29 M12.36 6.7 C7.92 3.77, 2.66 1.97, -1.06 0.3 M-1.08 0.55 C-1.08 0.55, -1.08 0.55, -1.08 0.55 M-1.08 0.55 C-1.08 0.55, -1.08 0.55, -1.08 0.55" stroke="#000000" stroke-width="1" fill="none"></path></g><g transform="translate(477.4589634371423 306.50536134596825) rotate(0 127.83095483339821 -1.9211619737333052)"><path d="M254.49 -2.17 L243.49 1.34 L241.59 -11.12 L257.54 -4.98" stroke="none" stroke-width="0" fill="#000000" fill-rule="evenodd"></path><path d="M256.78 -2.74 C251.5 -3.47, 248.81 -0.63, 243.35 3.52 M256.78 -3.87 C253.04 -1.42, 248.23 0.32, 243.07 2.5 M241.38 3.36 C243.17 -0.67, 241.79 -5.3, 241.98 -9.4 M243.02 2.46 C242.81 -0.82, 242.57 -5.61, 242.76 -9.17 M243.6 -8.18 C247.46 -7.47, 251.81 -4.98, 257.08 -4.3 M242.15 -9.57 C247.4 -8.05, 251.79 -5.52, 256.11 -3.71 M256.1 -3.47 C256.1 -3.47, 256.1 -3.47, 256.1 -3.47 M256.1 -3.47 C256.1 -3.47, 256.1 -3.47, 256.1 -3.47" stroke="#000000" stroke-width="1" fill="none"></path></g></g><g stroke-linecap="round" transform="translate(10 10) rotate(0 60.42201300703283 66.45660232354243)"><path d="M0 0 C0 0, 0 0, 0 0 M0 0 C0 0, 0 0, 0 0 M-0.33 5.82 C0.44 4.23, 1.71 3.32, 4.41 0.67 M-0.38 6.16 C1.97 3.67, 3.6 1.59, 5.26 0.67 M-0.19 11.74 C2.21 10.37, 5.95 7.22, 10.07 1.12 M-0.47 12.24 C4 7.6, 8.32 3.67, 11.1 0.73 M-0.47 16.62 C4.42 14.23, 5.34 12.19, 15.01 1.4 M-0.18 18.86 C4.67 14.55, 8.29 8.61, 15.9 0.2 M-1.44 25.3 C7.91 12.91, 15.78 3.08, 23 -0.53 M-0.69 23.63 C8.9 15.44, 14.63 7.62, 21.81 0.06 M1.61 29.15 C7.78 23.65, 10.77 16.77, 27.49 -1.28 M0.61 30.78 C9.49 18.97, 19.7 8.42, 25.63 -0.2 M-0.04 38.55 C7.14 27.48, 16.29 18.77, 31.36 1.28 M-0.63 37.7 C8.91 27.97, 17.38 15.97, 30.99 0.21 M0.03 41.42 C12.73 29.82, 26.38 13.94, 38.27 0.62 M-0.63 42.53 C12.86 28.04, 26.15 12.39, 37.46 -0.03 M-1.81 47.8 C12.26 36.83, 19.64 25.63, 40.55 -0.13 M0.69 48.82 C14.65 31.55, 31.64 13.07, 42.87 -1.02 M-0.03 52.84 C12.98 41.94, 24.81 28.71, 46.66 0.15 M-0.57 53.56 C17 34.84, 33.02 15.45, 48.29 0.71 M-0.48 61.21 C15 43.07, 33.75 22.39, 53.11 -1.18 M0.68 61.57 C19.3 39.06, 38.51 16.57, 52.36 -0.48 M-1.1 66.08 C20.23 41.99, 43.18 20.5, 59.92 1.87 M0.21 67.57 C21.35 44.87, 40.14 20.01, 58.28 1.02 M-1.18 73.74 C23.87 47.63, 43.86 19.8, 62.53 -1.81 M0.7 72.75 C13.4 57.06, 25.2 42.74, 64.12 -0.59 M-0.72 78.12 C23.86 51.36, 46.04 23.13, 67.27 -0.1 M0.88 78.45 C21.92 54.84, 41.1 31.16, 67.84 -0.15 M0.95 85.87 C28.67 53.59, 57.04 20.65, 75.27 0.63 M0.34 85.15 C23.66 57.7, 48.86 30.61, 73.58 -0.24 M-1.47 90.69 C27.7 62.53, 54.88 31.78, 77.91 -0.12 M-0.61 91.88 C32.64 56.36, 63.08 18.5, 78.66 -0.82 M-1.92 98.37 C27.41 64.6, 57.21 28.85, 84.76 1.28 M-0.17 97.28 C29.34 65.48, 59.27 30.88, 85.93 0.13 M1.7 105.34 C32.88 68.19, 63.72 30.87, 91.01 0.97 M0.13 103.23 C34.4 63.27, 69.09 23.91, 90.7 0.94 M-1.7 111.28 C32.38 70.53, 64.36 34.84, 97.41 -2.17 M-0.37 109.4 C20.46 88.4, 40.61 66.3, 95.14 -0.41 M-1.17 114.12 C30.55 77.35, 62.18 41.87, 101.7 1.88 M0.25 115.38 C27.17 86.46, 52.88 56.5, 101.17 0.06 M-0.27 122.42 C32.73 80.74, 68.1 41.04, 106.57 0.5 M-0.53 121 C24.03 93.49, 49.66 64.95, 106.92 -0.32 M-1.76 126.38 C46.05 80.94, 86.2 31.36, 111.08 -1.16 M0 128.44 C39.92 82.67, 79.24 37.42, 111.56 -0.54 M-0.26 133.66 C31.07 99.07, 60.1 64.41, 117.93 -1.2 M0.68 134.05 C30.21 99.52, 58.57 67.33, 117.12 0.18 M5.12 132.95 C29.26 105.4, 53.84 77.42, 119.57 0.37 M6.28 132.95 C37.37 97.75, 66.76 62.79, 121.96 -0.23 M12.22 132.56 C50.46 86.85, 93.67 41.95, 120.87 6.52 M12.4 133.68 C43.22 96.03, 75.39 60.64, 122.05 7.14 M14.43 131.73 C51.18 93.3, 85.41 53.44, 121.02 14.34 M16.56 134.49 C49.1 95.42, 82.85 56.57, 122.2 13.45 M21.99 134.12 C45.98 103.79, 71.91 72.81, 120.34 20.99 M22.97 132.91 C49.36 103.73, 76.19 72.2, 121.43 19.05 M27.47 134.21 C54.71 97.21, 85.97 61.61, 120.29 26.24 M26.46 133.16 C58.33 97.74, 86.91 65.02, 122.4 24.04 M31.69 133.54 C50.95 114.41, 67.97 89.84, 120.15 31.01 M31.87 132.43 C60.83 101.04, 89.27 69.52, 120.6 31.86 M37.13 135.09 C64.81 104.86, 91.89 73.61, 122.35 38.43 M37.97 134.26 C68.78 98.81, 99.5 60.77, 121.1 36.39 M41.91 131.54 C65.7 108.69, 83.73 82.41, 121.86 44.19 M42.84 132.88 C62.18 110.73, 82.25 88.11, 120.46 43.29 M49.22 131.63 C63.99 115.38, 80.76 99.41, 119.49 49.56 M47.81 132.56 C70.58 110.38, 91.42 87.02, 121.47 49.08 M52.58 133.16 C81.16 101.16, 106.38 71.21, 122.64 55.96 M54.2 134.67 C73.04 112.79, 92.15 89.18, 122.34 54.78 M60.57 133.6 C76.33 114.88, 92.51 91.67, 119.95 61.55 M58.5 133.32 C81.49 106.55, 106.78 79.01, 120.89 62.43 M63.55 134.66 C77.92 115.55, 94.98 97.57, 120.64 68.24 M64.55 133.92 C83.65 111.79, 103.16 87.96, 122.31 67.26 M68.94 133.32 C79.66 119.09, 92.59 107.05, 121.94 74.09 M69.31 133.29 C82.5 119.59, 94.81 104.34, 122.05 73.99 M72.67 134.15 C87.36 116.78, 100.88 103.81, 120.34 80.26 M73.75 134 C89.71 116.43, 106 98.2, 121.58 80.92 M79.08 131.63 C92.32 121.49, 99.14 110.53, 122.33 87.67 M79.28 133.7 C96.12 114.59, 112.85 96.21, 120.56 86.54 M84.42 134.47 C92.88 124.7, 101.79 114.68, 121.12 91.51 M84.61 133.5 C95.65 121.11, 105.33 111.02, 122.07 93.15 M92.71 131.9 C104.6 119.23, 112.95 106.16, 121.93 98.3 M90.21 133.27 C103.62 119.09, 115.02 106.05, 121.29 97.86 M95.24 134.01 C103.89 123.48, 112.08 113.3, 123.39 104.26 M95.18 134.02 C100.97 127.19, 105.03 122.54, 121.5 104.08 M102.49 134.04 C107.33 125.7, 116.92 113.83, 122.88 112.29 M101.67 133.2 C104.45 128.29, 109.84 122.97, 120.73 110.46 M107.55 132.7 C113.19 126.85, 118.24 122.09, 121.18 114.58 M105.79 133.11 C113.22 125.97, 118.67 120.52, 121.03 116.59 M113.49 132.7 C115.21 130.64, 116.36 126.42, 121.26 121.63 M112.03 133.88 C115.87 128.79, 119.07 126.13, 120.8 123.29 M116.61 133.72 C118.71 132.73, 120.36 130.57, 122.3 127.87 M117.42 133.49 C118.95 131.57, 120.29 129.51, 121.64 128.21" stroke="#82c91e" stroke-width="0.5" fill="none"></path><path d="M0.97 -1.95 C41.57 -1.86, 86.78 0.48, 121.49 -0.65 M-0.54 0.66 C48.56 -2.03, 96.89 -0.43, 120.14 0.27 M121.36 1.02 C122.21 39.78, 121.44 81, 121.24 133.88 M119.94 0.56 C120.49 48.07, 119.91 96.11, 121.59 132.99 M122.81 134.01 C83.67 135.14, 46.85 135.17, -1.11 133.96 M120.95 133.09 C79.96 132.08, 40.39 132.49, -0.32 133.36 M0.87 132.34 C-1.31 83.18, -0.33 34.65, 1.34 1.56 M-0.9 132.71 C-2.09 103.45, -1.12 72.83, -0.81 -0.8" stroke="#000000" stroke-width="1" fill="none"></path></g><g transform="translate(15 53.45660232354243) rotate(0 55.42201300703283 23)"><text x="55.42201300703283" y="32" font-family="Virgil, Segoe UI Emoji" font-size="36.513326216398085px" fill="#000000" text-anchor="middle" style="white-space: pre;" direction="ltr">App1</text></g><g stroke-linecap="round"><g transform="translate(133.3729688677031 76.3748587455947) rotate(0 87.54795375458764 91.86614193556855)"><path d="M-1.17 -1.13 C27.73 29.33, 144.54 152.54, 173.97 183.36 M0.42 0.89 C29.66 31.5, 147.18 154.73, 176.27 184.86" stroke="#000000" stroke-width="1" fill="none"></path></g><g transform="translate(133.3729688677031 76.3748587455947) rotate(0 87.54795375458764 91.86614193556855)"><path d="M174.57 184.02 L160.81 180.87 L169.92 172.55 L176.36 186.42" stroke="none" stroke-width="0" fill="#000000" fill-rule="evenodd"></path><path d="M174.86 183.88 C171.32 183.62, 167.06 180.49, 163.78 180.87 M176.45 184.16 C171.02 183.33, 164.84 180.92, 162.34 179.8 M162.73 178.75 C164.1 177.13, 166.27 176.39, 172.19 169.47 M162.85 179.61 C165.94 176.47, 169.61 172.94, 171.51 170.89 M171.76 171.63 C174.31 176.98, 174.39 182.15, 176.73 184.11 M170.79 170.37 C172.42 174.41, 173.75 178.46, 176.81 185.16 M176.27 184.86 C176.27 184.86, 176.27 184.86, 176.27 184.86 M176.27 184.86 C176.27 184.86, 176.27 184.86, 176.27 184.86" stroke="#000000" stroke-width="1" fill="none"></path></g></g><g stroke-opacity="0.9" fill-opacity="0.9" transform="translate(746.4463967239942 410.71629903259895) rotate(0 72.35359485706931 31.734032832047944)"><text x="72.35359485706928" y="22.734032832047934" font-family="Virgil, Segoe UI Emoji" font-size="25.38722626563834px" fill="#000000" text-anchor="middle" style="white-space: pre;" direction="ltr">Subscription</text><text x="72.35359485706928" y="54.46806566409587" font-family="Virgil, Segoe UI Emoji" font-size="25.38722626563834px" fill="#000000" text-anchor="middle" style="white-space: pre;" direction="ltr">Data</text></g><g transform="translate(299.3124020827797 354.7388906691225) rotate(0 178.97994517275026 12.0589324761782)"><text x="178.9799451727503" y="19.117864952356427" font-family="Cascadia, Segoe UI Emoji" font-size="20.30978101251067px" fill="#000000" text-anchor="middle" style="white-space: pre;" direction="ltr"> [base-path]/webhooks/&lt;entity&gt;</text></g></svg>